<?xml version="1.0" encoding="utf-8"?>
<!-- Generator: Adobe Illustrator 14.0.0, SVG Export Plug-In . SVG Version: 6.00 Build 43363)  -->
<!DOCTYPE svg PUBLIC "-//W3C//DTD SVG 1.1//EN" "http://www.w3.org/Graphics/SVG/1.1/DTD/svg11.dtd">
<svg version="1.1" id="Layer_1" xmlns="http://www.w3.org/2000/svg" xmlns:xlink="http://www.w3.org/1999/xlink" x="0px" y="0px"
	 width="191.34px" height="191.34px" viewBox="0 0 191.34 191.34" enable-background="new 0 0 191.34 191.34" xml:space="preserve">
<g>
	<rect x="20.447" y="26.17" fill="#811331" width="151.814" height="138.118"/>
	<path fill="#FFFFFF" d="M116.53,93.875h-7.861v-33.62h7.861c4.135,0,7.865,1.626,7.865,6.166v21.355
		C124.395,92.249,120.665,93.875,116.53,93.875z M89.29,93.875v-33.62h6.641v28.811h5.897v4.809H89.29z M87.395,119.217
		c-16.403-7.932-34.629-8.062-34.629,8.805h-5.08c-0.814-23.65,22.633-36.722,48.99-23.986c38.56,18.635,45.062,5.761,45.062-9.688
		V93.94l-8.062-0.066v-33.62h12.475v4.809h-5.831v7.733h5.559v4.811h-5.559v11.458h6.094v7.379
		C146.413,124.162,126.9,138.392,87.395,119.217z M72.891,93.875v-33.62h6.71v33.62H72.891z M60.56,65.064v28.811h-6.643V65.064
		H49.38v-4.809h15.653v4.809H60.56z M117.685,67.303c0-0.95-0.136-2.239-1.155-2.239h-1.146v24.001h1.146
		c1.02,0,1.155-1.29,1.155-2.17V67.303z"/>
</g>
</svg>
