<?xml version="1.0" encoding="utf-8"?>
<!-- Generator: Adobe Illustrator 24.3.0, SVG Export Plug-In . SVG Version: 6.00 Build 0)  -->
<svg version="1.1" id="Layer_1" xmlns="http://www.w3.org/2000/svg" xmlns:xlink="http://www.w3.org/1999/xlink" x="0px" y="0px"
	 viewBox="0 0 118.7 60" style="enable-background:new 0 0 118.7 60;" xml:space="preserve">
<style type="text/css">
	.st0{fill:#31599F;}
</style>
<g>
	<path class="st0" d="M49,16.1c0.2-0.5,0.3-0.9,0.2-1.3c0,0,0-0.1,0-0.1c-0.1-0.3-0.2-0.5-0.3-0.8c-0.4-1-1.6-2.1-2.4-2.7
		c-1.6-1.3-2.8-2.6-3.7-4.5c-2.3,0.6-3.6,0.4-5.8-0.2c-1.4-0.4-2.2-0.9-3.7-1.2c-1.1-0.2-1.9-0.3-2.8-0.3c-1.4,0-2.7,0.5-3.8,1.3
		c-1.1-0.8-2.4-1.3-3.8-1.3c-1,0-1.7,0.1-2.8,0.3c-1.5,0.3-2.3,0.8-3.7,1.2C14.3,7,13,7.2,10.7,6.6C9.9,8.3,9.2,9,7.9,10.3
		c-0.6,0.6-1.3,1-1.9,1.6c-0.8,0.9-1.3,1.3-1.7,2.5c-0.3,1,0.1,2.2,1.1,2.6c0.8,0.3,1.7,0,1.9-0.9c0.1-0.2,0.1-0.4,0-0.7
		c0.7,0.3,1.2,0.9,1.6,1.6c1,1.6,1.4,2.9,1.7,4.7c0.1,1,0.1,1.6,0,2.7c-0.1,1.8-0.2,2.8-0.6,4.5c-0.2,1-0.4,1.9-0.8,2.8
		c-0.9,2.2-1.8,3.4-3.6,4.9l-0.5,2.1c0.4,1.7,0.7,2.6,1.3,4.1c0.6,1.4,1,2.2,1.9,3.4c0.9,1.2,1.5,1.8,2.7,2.7
		c1.6,1.2,2.7,1.5,4.6,2.1c1.5,0.4,2.4,0.5,4,0.9c1.2,0.3,1.9,0.5,3,0.9c1.6,0.7,3,1.7,4.3,2.9c0.5-0.5,1.1-1,1.7-1.4
		c1.9-1.4,3.3-1.8,5.5-2.4c1.5-0.4,2.5-0.5,4-0.9c1.9-0.5,3-0.9,4.6-2.1c1.2-0.9,1.8-1.5,2.7-2.7c0.9-1.2,1.3-2,1.9-3.4
		c0.7-1.6,1-2.5,1.3-4.1L48,36.6c-3-2.5-3.6-4.4-4.5-7.8c-0.5-1.8-0.8-5.2-0.6-7.2c0.2-1.6,0.5-2.6,1.3-4c0.5-0.9,1-1.8,2-2.2
		c-0.1,0.3-0.1,0.5,0,0.7c0.2,0.9,1.1,1.2,1.9,0.9C48.6,16.8,48.8,16.5,49,16.1z M48,38.2c-0.9-0.8-1.4-1.5-2.1-2.6
		c-0.3-0.4-0.5-0.9-0.7-1.3c0.6,0.9,1.4,1.7,2.4,2.6L48,38.2z M8.5,34c-0.7,1.6-1.7,3-2.9,4.2l0.3-1.4C7.1,35.8,7.8,35,8.5,34z
		 M6.7,13.6c2.1,0.2,3.3,3.2,3.6,5l0,0.1c-0.2-0.4-0.4-0.8-0.6-1.3c-0.6-1.2-1.3-2.2-2.7-2.6l-0.1,0.3c0.3,0.2,0.3,0.5,0.2,0.8
		c-0.2,0.7-0.8,0.9-1.5,0.7c-0.4-0.1-0.5-0.3-0.8-0.7c-0.2-0.4-0.2-0.8-0.2-1.2C4.9,13.9,5.8,13.6,6.7,13.6z M48.5,13.7
		c-0.4-0.3-1-0.4-1.6-0.4c-2.3,0.2-3.6,3.3-3.9,5.2c-0.2,1.3-0.4,2.3-0.4,3.6c-0.1,2,0.2,5.1,0.6,6.8c0.2,0.9,0.5,1.7,0.7,2.5h0
		c0.3,0.9,0.5,1.6,0.8,2.2c0.7,2,2,3.7,3.5,5.1c-0.5,2.4-1.6,5.3-3.1,7.2c-0.9,1.2-1.4,1.8-2.6,2.6c-1.5,1.1-2.6,1.5-4.5,2
		c-1.5,0.4-2.4,0.5-4,0.9c-1.2,0.3-1.9,0.5-3,0.9C29.4,53,28,54,26.8,55.2c-0.5-0.5-0.9-0.8-1.5-1.3c-2-1.4-3.3-1.8-5.6-2.5
		c-1.5-0.4-2.5-0.5-4-0.9c-1.9-0.5-2.9-0.9-4.5-2c-1.2-0.8-1.7-1.5-2.6-2.6C7.1,44,6,41.1,5.5,38.7c1.1-1,1.7-1.7,2.5-3
		c0.8-1.4,1.2-2.8,1.8-4.3c0.1-0.4,0.3-0.7,0.3-1c0.5-2,0.9-4,1-6c0-0.9,0.1-1.5,0-2.2c0-1.3-0.2-2.3-0.4-3.6
		c-0.3-1.6-1.2-4-2.7-4.9c-0.8-0.5-2-0.6-2.8,0c0.5-0.8,1.5-1.8,2.1-2.3c1.5-1.2,2.8-2.6,3.7-4.4c2.2,0.6,3.6,0.3,5.7-0.3
		c1.4-0.4,2.2-0.9,3.7-1.2c1.1-0.2,1.8-0.3,2.8-0.3c0.8,0,1.3,0.1,2.1,0.4c0.8,0.3,1.1,0.5,1.7,1c1.1-0.9,2.4-1.4,3.8-1.4
		c0.9,0,1.7,0.1,2.8,0.3c1.5,0.3,2.2,0.8,3.7,1.2c2.1,0.6,3.6,0.9,5.7,0.3c0.7,1.6,1.5,2.4,2.7,3.6c0.6,0.6,1.3,1,1.8,1.7
		C47.8,12.7,48.2,13.1,48.5,13.7z M48.9,14.8c0.1,0.7-0.2,1.6-0.9,1.8c-0.6,0.2-1.3,0-1.5-0.7c-0.1-0.3-0.1-0.6,0.2-0.8l-0.1-0.3
		c-1,0.3-1.7,1-2.3,1.9c-0.4,0.7-0.8,1.3-1,2l0-0.1c0.3-1.5,1.2-3.8,2.6-4.6C46.9,13.4,48.6,13.4,48.9,14.8z M40.9,45.5
		c0-0.1,0-0.2,0-0.4c0-0.1,0-0.2-0.1-0.3c-0.1-0.1-0.2-0.2-0.3-0.2c-0.1,0-0.4-0.1-0.5-0.1h-0.1c-0.1,0-0.1,0-0.2,0
		c-0.1,0-0.2,0-0.3-0.1l-0.2-0.2c0.1,0,0.1,0,0.1,0c0,0,0.1,0,0.1,0H40c0.1,0,0.2,0,0.3,0c0.1,0,0.1,0,0.2,0.1l-0.4-0.5
		c-0.1-0.1-0.1-0.1-0.2-0.2c-0.1,0-0.1-0.1-0.2-0.1H39c-0.1,0-0.1,0-0.2,0c-0.1,0-0.1-0.1-0.1-0.1l-0.1-0.2c0.1,0,0.1,0,0.1,0
		c0,0,0.1,0,0.1,0h0.6c0.1,0,0.2,0,0.3,0c0.1,0,0.1,0,0.2,0.1l-0.4-0.5c-0.1-0.1-0.1-0.1-0.2-0.2c-0.1,0-0.1-0.1-0.2-0.1h-0.7
		c-0.1,0-0.1,0-0.2,0c-0.1,0-0.1-0.1-0.1-0.1l-0.1-0.2c0,0,0.1,0,0.1,0c0,0,0.1,0,0.1,0h0.6c0.1,0,0.2,0,0.3,0c0.1,0,0.1,0,0.2,0.1
		l-0.4-0.5c-0.1-0.1-0.1-0.1-0.2-0.2c-0.1,0-0.1-0.1-0.2-0.1h-0.7c-0.1,0-0.1,0-0.2,0c0,0-0.1,0-0.1-0.1c0,0-0.1-0.1-0.2-0.3
		C37.2,41,37,40.7,37,40.7c0.3,0,0.4,0,0.7-0.1c0.4-0.1,0.7-0.3,1-0.6c0.2-0.3,0.2-0.5,0.2-0.9c0-0.4-0.1-0.6-0.3-0.9
		c-0.2-0.3-0.4-0.4-0.6-0.5c-0.3-0.2-0.5-0.2-0.8-0.3c-0.3-0.1-0.5-0.1-0.7-0.3c-0.1-0.2-0.1-0.3,0-0.5c0.1-0.1,0.1-0.2,0.3-0.3
		c-0.3-0.1-0.6-0.1-1,0c-0.2,0.1-0.4,0.2-0.5,0.4c-0.1,0.3-0.2,0.5-0.1,0.7c-0.3,0.2-0.5,0.3-0.8,0.5c-0.4,0.3-0.6,0.5-1,0.9
		c0.3-0.1,0.5-0.1,0.8-0.2c0.3,0,0.5,0,0.8-0.1c0-0.2,0-0.3,0.1-0.4c0.1-0.3,0.4-0.4,0.7-0.4c-0.1,0.1-0.2,0.1-0.3,0.2
		c-0.1,0.2-0.2,0.3-0.1,0.5c0.1,0.2,0.2,0.3,0.3,0.3c0.1,0,0.2,0,0.2-0.1c0-0.1,0-0.2,0-0.3c0.1-0.3,0.3-0.5,0.6-0.4
		c-0.1,0-0.1,0.1-0.2,0.2c-0.2,0.2-0.2,0.5,0,0.8c0.1,0.2,0.3,0.3,0.6,0.2c0-0.1-0.1-0.2-0.1-0.3c0-0.2,0.3-0.5,0.5-0.5
		c0.2,0,0.5,0.2,0.5,0.4c0,0.5-0.3,0.6-0.6,0.7c-0.2,0-0.5-0.1-0.7-0.1c-0.3-0.1-0.5-0.1-0.8-0.2c-0.7-0.1-1.1-0.2-1.8-0.2
		c-0.5,0-1,0.1-1.5,0.2c-0.9,0.2-1.1,0.3-2,0.5c-1,0.2-1.6,0.4-2.5,0.4c-1,0-1.6-0.1-2.6-0.4c0.1,0.2,0.1,0.3,0.2,0.5
		c0,0.1,0,0.2,0,0.3c-0.1-0.3-0.2-0.4-0.3-0.6c-0.2-0.3-0.4-0.4-0.6-0.7c0-0.1-0.1-0.1-0.1-0.2c0-0.1,0-0.1,0-0.2
		c0-0.1,0-0.1,0.1-0.2c0,0.1,0,0.1,0,0.2c0,0,0,0.1,0.1,0.1l0.6,0.6c0.1-0.4,0.1-0.7-0.1-1.1c-0.1-0.3-0.2-0.5-0.3-0.8
		c0.1-0.3,0.1-0.5,0.1-0.8c0-0.2,0-0.4-0.1-0.6c0,0.2-0.1,0.3-0.2,0.4C24.7,37,24.6,37,24.5,37c-0.1,0.1-0.1,0.1-0.2,0.2
		c0,0.1,0,0.1,0,0.2c0,0.1,0,0.2,0.1,0.3c-0.1-0.1-0.2-0.2-0.3-0.3C24,37.4,24,37.3,24,37.2c0-0.1,0-0.2,0-0.3
		c0-0.1,0.1-0.1,0.2-0.2c0.1-0.1,0.2,0,0.3-0.1c0.1,0,0.2-0.1,0.2-0.2c0.1-0.1,0.2-0.2,0.2-0.4c-0.2-0.1-0.3-0.1-0.6,0
		c-0.1,0-0.2,0-0.3,0.1c-0.2-0.2-0.3-0.3-0.5-0.3c-0.1,0-0.2-0.1-0.4-0.1c-0.2-0.2-0.3-0.2-0.5-0.3c-0.2-0.1-0.3,0-0.6,0
		s-0.4,0-0.6,0c-0.2,0.1-0.4,0.1-0.5,0.3c-0.1,0-0.2,0-0.4,0.1c-0.2,0.1-0.4,0.2-0.5,0.3c-0.1,0-0.2,0-0.3-0.1c-0.2,0-0.3,0-0.6,0.1
		c0,0.1,0.1,0.2,0.2,0.4c0.1,0.1,0.1,0.1,0.3,0.2c0.1,0,0.2,0,0.3,0.1c0.1,0,0.1,0.1,0.2,0.2c0.1,0.1,0.1,0.2,0,0.3
		c0,0.1-0.1,0.2-0.1,0.3c-0.1,0.1-0.2,0.2-0.3,0.3c0.1-0.1,0.1-0.2,0.1-0.3c0-0.1,0-0.1,0-0.2c0-0.1-0.1-0.2-0.2-0.2
		c-0.1,0-0.1-0.1-0.2-0.1C19,36.8,19,36.7,19,36.5c-0.1,0.2-0.1,0.4-0.1,0.6c0,0.3,0,0.5,0.1,0.8c-0.2,0.3-0.3,0.4-0.3,0.8
		c-0.1,0.4-0.1,0.7-0.1,1.1l0.6-0.6c0,0,0,0,0.1-0.1c0-0.1,0-0.1,0-0.2c0,0.1,0.1,0.1,0.1,0.2c0,0.1,0,0.1,0,0.2
		c0,0.1-0.1,0.1-0.1,0.2c-0.2,0.3-0.4,0.4-0.6,0.7c-0.1,0.2-0.2,0.4-0.3,0.6c0-0.1,0-0.1-0.1-0.2c0-0.1,0-0.1,0-0.2
		c-0.3-0.2-0.5-0.3-0.8-0.5c-0.3-0.2-0.5-0.3-0.7-0.6c-0.3-0.3-0.6-0.5-0.6-1c0-0.2,0.2-0.3,0.2-0.5c0.1-0.3,0.2-0.4,0.2-0.7
		c0-0.3-0.1-0.5-0.3-0.7c0-0.2,0-0.3-0.1-0.4c-0.1-0.2-0.3-0.3-0.5-0.4c0.1,0.1,0.1,0.2,0.1,0.4c0,0.1,0,0.2-0.1,0.3
		c0.1,0.1,0.1,0.2,0.1,0.3c0,0.2-0.1,0.3-0.2,0.4c0-0.2,0-0.4-0.1-0.6c-0.1-0.2-0.2-0.3-0.4-0.4c-0.1-0.3-0.3-0.5-0.6-0.5
		c-0.2,0-0.3,0-0.4,0.2c0.2,0,0.2,0.1,0.3,0.2c0,0.1,0.1,0.1,0.1,0.2c-0.1,0-0.1,0.1-0.1,0.1c-0.1,0.1-0.1,0.1-0.1,0.2
		c0.2,0,0.4,0.1,0.5,0.3c0.1,0.2,0.2,0.3,0.2,0.6c0-0.1-0.1-0.2-0.2-0.3c-0.2-0.3-0.5-0.3-0.8-0.3c-0.1-0.1-0.3-0.2-0.5-0.2
		c-0.2,0-0.3,0.1-0.4,0.3c0.1,0,0.2,0,0.3,0.1c0.1,0.1,0.1,0.1,0.2,0.2c-0.1,0.1-0.1,0.1-0.1,0.2c-0.1,0.2-0.1,0.3-0.1,0.5
		c0,0.2,0,0.3,0.2,0.5c0.1,0.2,0.3,0.3,0.5,0.3c0.1,0,0.1,0,0.2,0c0.1,0,0.1-0.1,0.2-0.1c0.2,0,0.3,0.3,0,0.4c-0.1,0-0.1,0-0.2,0
		c-0.1,0-0.1-0.1-0.2-0.1c-0.1,0-0.2,0.1-0.3,0.2c-0.1,0.1-0.1,0.2-0.1,0.3c-0.1,0-0.1,0-0.2,0c-0.1,0-0.1,0-0.2-0.1
		c0,0.2,0,0.3,0.1,0.4s0.2,0.2,0.4,0.2c0.1,0.2,0.2,0.4,0.5,0.5c0.1,0.1,0.2,0.1,0.3,0.1c0.2,0,0.2-0.1,0.4-0.2
		c0.1,0,0.1-0.1,0.2-0.1c0.1,0,0.2,0,0.3,0.1c0.1,0.1,0.2,0.2,0.2,0.4c0,0.2-0.1,0.3-0.3,0.4c-0.1,0.1-0.2,0.1-0.4,0l0.3,0.2
		c0.1,0.1,0.1,0.1,0.2,0.2c0.1,0,0.2,0.1,0.3,0.1h0.8c0.1,0,0.2,0,0.3,0c0.1,0,0.2,0,0.3,0.1l0.2,0.2c-0.1,0-0.1,0-0.2,0
		c0,0-0.1,0-0.1,0h-0.8c-0.1,0-0.2,0-0.3,0c-0.1,0-0.1,0-0.2-0.1l0.4,0.4c0.1,0.1,0.1,0.1,0.2,0.2c0.1,0,0.2,0.1,0.3,0.1h0.8
		c0.1,0,0.2,0,0.3,0c0.1,0,0.2,0,0.3,0.1l0.2,0.2c-0.1,0-0.1,0-0.2,0c-0.1,0-0.1,0-0.1,0h-0.8c-0.1,0-0.2,0-0.3,0
		c-0.1,0-0.1,0-0.2-0.1l0.4,0.4c0.1,0.1,0.1,0.1,0.2,0.2c0.1,0,0.2,0.1,0.3,0.1H18c0.1,0,0.2,0,0.3,0c0.1,0,0.2,0,0.3,0.1l0.2,0.2
		c-0.1,0-0.1,0-0.2,0c0,0-0.1,0-0.1,0h-0.8c-0.1,0-0.2,0-0.3,0c-0.1,0-0.1,0-0.2-0.1l0.4,0.4c0.1,0.1,0.1,0.1,0.2,0.1
		c0.1,0,0.2,0.1,0.3,0.1h1.4c-0.1-0.1-0.2-0.2-0.3-0.4C19.1,43.1,19,43,19,42.9c0-0.1,0-0.2,0-0.3c-0.1,0-0.1-0.1-0.1-0.1
		c-0.1-0.1-0.1-0.1-0.2-0.3c-0.1-0.2-0.1-0.3-0.1-0.5c0-0.1,0-0.2,0-0.3c0-0.1,0.1-0.2,0.1-0.3c0.1-0.1,0.1-0.1,0.2-0.2
		c0,0,0.1-0.1,0.1-0.1c0-0.1,0.1-0.1,0.1-0.2l0.1,0.2c0,0,0,0.1,0,0.1c0,0.1,0,0.1-0.1,0.1c-0.1,0.1-0.1,0.1-0.1,0.2
		c-0.1,0.1-0.1,0.2-0.1,0.3c0,0.1,0,0.2,0,0.3c0,0.1,0,0.1,0.1,0.2s0.1,0.1,0.1,0.1l0.1-0.2l0.1-0.2c0,0,0-0.1,0-0.1
		c0-0.1,0-0.1,0-0.1l0.2,0.2c0,0.1,0,0.1,0,0.2c0,0.1,0,0.1,0,0.2l-0.2,0.3c0,0.1,0,0.1-0.1,0.2c0,0.1,0,0.1,0,0.2
		c0,0.1,0.1,0.1,0.1,0.2c0.1,0.1,0.1,0.1,0.2,0.2c0-0.2,0.1-0.3,0.1-0.4c0-0.1,0.1-0.2,0.1-0.3c0,0,0-0.1,0-0.1c0-0.1,0-0.1,0-0.2
		l0.2,0.3c0,0,0,0.1,0,0.2c0,0.1,0,0.1,0,0.1l-0.1,0.4c0,0.1,0,0.1,0,0.2c0,0.1,0.1,0.2,0.2,0.2c0.1,0.1,0.1,0.1,0.2,0.1l0.1-0.4
		c0-0.1,0-0.1,0-0.2c0-0.1,0-0.1,0-0.2l0.2,0.2c0.1,0.1,0,0.1,0.1,0.2c0,0.1,0,0.1,0,0.2l-0.1,0.3c0,0.1,0,0.2,0,0.3
		c0,0.1,0,0.2,0.1,0.3c-0.1,0-0.1-0.1-0.2-0.1c-0.1-0.1-0.1-0.1-0.1-0.2c0-0.1,0-0.1-0.1-0.1c-0.1,0-0.1-0.1-0.2-0.1
		c-0.1-0.1-0.2-0.1-0.3-0.3h-1.3c-0.7,0.4-0.5,0.4-0.9,0.6c-0.6,0.3-0.9,0.7-1.5,0.7c-0.3,0-0.4-0.1-0.6-0.2c-0.2,0-0.2-0.1-0.4-0.1
		c-0.2,0-0.4,0-0.5,0.1c-0.2,0.1-0.2,0.2-0.3,0.4c0.2-0.1,0.3-0.1,0.5-0.1c0.2,0,0.3,0.1,0.4,0.2c-0.1,0-0.2,0-0.4,0
		c-0.3,0-0.5,0-0.7,0.2c-0.2,0.2-0.4,0.3-0.4,0.6c0,0.2,0,0.3,0,0.4c-0.1,0.1-0.1,0.1-0.2,0.2c-0.1,0.1-0.2,0.2-0.2,0.3
		c0,0.1,0,0.3,0.2,0.4c0.1-0.2,0.1-0.3,0.3-0.3c0.1-0.1,0.2-0.1,0.3-0.1c0,0,0.1,0.1,0.1,0.1c0.1,0,0.1,0,0.2,0.1l0.1-0.2
		c0-0.3,0-0.5,0.2-0.7c0.2-0.3,0.4-0.4,0.8-0.3c-0.3,0.1-0.5,0.2-0.6,0.5c-0.1,0.2-0.1,0.3-0.1,0.5c-0.1,0.1-0.2,0.1-0.3,0.3
		c-0.1,0.2-0.1,0.4,0,0.6c0.1-0.1,0.2-0.2,0.3-0.3c0.2-0.1,0.3-0.2,0.5-0.2c0.1,0,0.2,0,0.3,0.1c0.2,0,0.2,0,0.4,0
		c-0.1-0.1-0.1-0.2-0.1-0.3c0-0.3,0.1-0.6,0.4-0.7c0.1,0,0.2-0.1,0.3,0c-0.1,0-0.2,0.1-0.3,0.2c-0.1,0.1-0.2,0.3-0.2,0.5
		c0,0.2,0.1,0.3,0.2,0.4c0.1,0.1,0.2,0.1,0.3,0.1c0,0.1,0,0.1,0,0.2c0,0.1,0,0.1-0.1,0.2c0.2,0,0.3-0.1,0.5-0.2
		c0.1-0.1,0.2-0.2,0.2-0.3c0.1,0,0.2-0.1,0.3-0.1c0.2-0.1,0.3-0.3,0.3-0.6c0-0.1-0.1-0.2-0.2-0.3c0-0.2,0.1-0.4,0.3-0.4
		c0.2,0,0.4,0.2,0.3,0.4c0,0.1,0,0.1-0.1,0.2c0.1,0,0.1,0,0.2-0.1c0.1,0,0.1-0.1,0.2-0.2l0.4-0.5c0,0,0-0.1,0.1-0.1
		c0.1-0.2,0.2-0.3,0.4-0.3h0.2c-0.1,0-0.1,0.1-0.1,0.1c0,0-0.1,0.1-0.1,0.1l-0.4,0.6c-0.1,0.1-0.1,0.2-0.2,0.2
		c-0.1,0.1-0.1,0.1-0.2,0.1l0.5,0c0.1,0,0.2,0,0.2-0.1c0.1,0,0.1-0.1,0.2-0.2l0.5-0.7c0.1-0.1,0.1-0.1,0.2-0.2
		c0.1,0,0.1-0.1,0.2-0.1h0.3c-0.1,0-0.1,0.1-0.1,0.1c0,0-0.1,0.1-0.1,0.1L20,46.3c-0.1,0.1-0.1,0.2-0.2,0.2
		c-0.1,0.1-0.1,0.1-0.2,0.1l0.5,0c0.1,0,0.2,0,0.2-0.1c0.1,0,0.2-0.1,0.2-0.2l0.7-1C21.1,45.3,21,45.2,21,45c0-0.1,0-0.2,0-0.3
		c0-0.1,0-0.2,0-0.3c0-0.1,0.1-0.1,0.1-0.2c0-0.1,0-0.1,0-0.2c0-0.1,0-0.1,0-0.2l0.2,0.1c0,0,0.1,0.1,0.1,0.1c0,0.1,0,0.1,0,0.2
		c0,0.1,0,0.1,0,0.2c0,0.1-0.1,0.2-0.1,0.3s0,0.2,0,0.3c0,0.1,0.1,0.2,0.2,0.3c0.1,0.1,0.2,0.2,0.4,0.2v-1.2h0.3v1.2
		c0,0.1,0,0.1,0.1,0.2c0,0.1,0.1,0.1,0.1,0.1l0.4,0.2c0.1,0.1,0.2,0.1,0.3,0.1c0.1,0,0.2,0,0.3-0.1l0.3-0.1c-0.1,0-0.1,0-0.2,0
		c-0.1,0-0.1-0.1-0.2-0.1l-0.8-0.4c0.1-0.1,0.1-0.2,0.2-0.3c0-0.1,0-0.2,0-0.3c0-0.1,0-0.2-0.1-0.3c0-0.1,0-0.1,0-0.2
		c0-0.1,0-0.1,0-0.2c0-0.1,0-0.1,0.1-0.1l0.2-0.1c0,0.1,0,0.1,0,0.2c0,0.1,0,0.1,0,0.2c0,0.1,0.1,0.1,0.1,0.2c0,0.1,0,0.2,0,0.3
		c0,0.2,0,0.3-0.1,0.5l0.8,0.5c0.1,0,0.1,0.1,0.2,0.1c0.1,0,0.1,0,0.2,0l0.4-0.2c-0.1,0-0.1,0-0.2,0c-0.1,0-0.1-0.1-0.2-0.1L23.4,45
		c0,0,0,0-0.1,0c0.1-0.2,0.1-0.3,0.1-0.4c0-0.1,0-0.2,0-0.3l-0.1-0.4c0-0.1,0-0.1,0-0.2c0-0.1,0-0.1,0.1-0.2l0.2-0.2
		c0,0.1,0,0.1,0,0.2c0,0.1,0,0.1,0,0.2c0,0.1,0.1,0.2,0.1,0.3c0,0.1,0,0.2,0.1,0.3c0,0.1,0,0.2,0,0.3c0,0.1-0.1,0.3-0.1,0.3l1,0.5
		c0.1,0,0.1,0.1,0.2,0.1c0.1,0,0.1,0,0.2,0l0.4-0.2c-0.1,0-0.1,0-0.2,0c-0.1,0-0.1-0.1-0.2-0.1l-0.8-0.4c0,0-0.1,0-0.1-0.1
		c-0.1,0-0.1,0-0.1-0.1c0-0.1,0-0.1,0.1-0.2c0-0.1,0-0.1,0.1-0.2c0-0.2,0-0.4,0-0.6c0-0.2-0.1-0.3-0.2-0.5c0-0.1,0-0.1,0-0.2
		c0-0.1,0-0.1,0-0.2l0.2-0.3c0,0.1,0,0.1,0,0.2c0,0.1,0,0.1,0,0.1c0,0.1,0.1,0.1,0.1,0.3c0.1,0.2,0.1,0.3,0.1,0.4
		c0.1-0.1,0.1-0.1,0.2-0.2s0.1-0.1,0.1-0.2c0-0.1,0-0.1,0-0.2c0-0.1,0-0.1-0.1-0.2l-0.2-0.3c0,0,0-0.1,0-0.1c0-0.1,0-0.1,0-0.2
		l0.2-0.2c0,0.1,0,0.1,0,0.1c0,0,0,0.1,0,0.1l0.1,0.2l0.1,0.2c0.1,0,0.1-0.1,0.1-0.1c0-0.1,0.1-0.1,0.1-0.2c0-0.1,0.1-0.2,0-0.3
		c0-0.1,0-0.2-0.1-0.3c0-0.1-0.1-0.1-0.1-0.2c0,0-0.1-0.1-0.1-0.1c0-0.1,0-0.1,0-0.1l0.1-0.3c0,0.1,0,0.1,0.1,0.2
		c0,0,0.1,0.1,0.1,0.1c0.1,0.1,0.1,0.1,0.2,0.2c0.1,0.1,0.1,0.1,0.1,0.3c0,0.1,0,0.2,0,0.3c0,0.2,0,0.3-0.1,0.5
		c-0.1,0.1-0.1,0.2-0.2,0.3c0,0-0.1,0.1-0.1,0.1c0,0.1,0,0.2,0,0.3c0,0.1-0.1,0.2-0.1,0.3c-0.1,0.2-0.3,0.4-0.4,0.5c0,0,0,0.2,0,0.3
		c0,0.1,0,0.2-0.1,0.4l1.1,0.6c0.1,0,0.1,0.1,0.2,0.1c0.1,0,0.1,0,0.2,0l0.4-0.2c-0.1,0-0.1,0-0.2,0c-0.1,0-0.1-0.1-0.2-0.1L25,44.2
		c0,0-0.1,0-0.1-0.1c-0.1,0-0.1,0-0.1-0.1c0.1,0,0.2,0,0.3-0.1c0.1,0,0.2,0,0.3,0c0.1,0,0.1,0,0.2,0.1l0.6,0.3
		c0.1,0,0.1,0.1,0.2,0.1c0.1,0,0.2,0,0.2,0l0.5-0.2c-0.1,0-0.1,0-0.2,0c-0.1,0-0.1-0.1-0.1-0.2c-0.1-0.2,0.1-0.4,0.3-0.5
		c0.7-0.4,1.1-0.5,1.8-0.8c1-0.5,1.6-0.9,2.6-1.3c0.6-0.2,0.9-0.5,1.5-0.5c0.4,0,0.6,0,1,0.2c0.2,0.1,0.2,0.2,0.4,0.3
		c0.1,0.2,0.1,0.3,0.2,0.5c0,0.2,0,0.3,0,0.5c0,0.5,0,1,0.4,1.5c0.2,0.2,0.3,0.3,0.6,0.5c0.2,0.1,0.3,0.2,0.6,0.3
		c0.1,0.1,0.2,0.2,0.3,0.3c0,0.1,0,0.2,0,0.3c0.2,0,0.3,0,0.4-0.1c0.2-0.1,0.4-0.2,0.5-0.4H38c0.1,0.1,0.1,0.2,0.1,0.3
		c0,0.2,0,0.3-0.1,0.4c-0.1,0.1-0.2,0.1-0.3,0.1c-0.3,0-0.4-0.1-0.7,0c-0.2,0-0.3,0-0.5,0.1c-0.2,0.1-0.4,0.3-0.4,0.5
		c-0.1,0.2-0.1,0.3-0.1,0.5c-0.1,0.1-0.1,0.1-0.2,0.2c-0.1,0.2-0.1,0.4,0,0.6c0.1-0.1,0.2-0.2,0.3-0.3c0.1-0.1,0.2-0.1,0.4-0.1
		c0-0.4,0.2-0.6,0.5-0.8c0.2-0.1,0.3-0.1,0.4-0.1c-0.2,0.1-0.3,0.2-0.4,0.4c-0.2,0.3-0.3,0.5-0.3,0.8c-0.1,0.1-0.1,0.2-0.1,0.3
		c0,0.1,0,0.2,0.1,0.3c0.2-0.2,0.3-0.3,0.5-0.4c0.1,0,0.2-0.1,0.3-0.1c0.1,0,0.2,0,0.3,0c0.1,0,0.2,0,0.2,0c-0.1-0.3-0.1-0.5,0-0.8
		c0.2-0.2,0.4-0.3,0.7-0.3c-0.2,0.1-0.3,0.1-0.4,0.3c-0.1,0.1-0.1,0.3-0.1,0.4c0,0.2,0.1,0.3,0.3,0.4c0,0.1,0,0.2,0,0.3
		c0,0.1,0.1,0.1,0.2,0.2c0-0.1,0.1-0.2,0.2-0.3c0.1-0.1,0.1-0.1,0.2-0.1c0.1-0.1,0.2,0,0.4-0.1c0.3,0,0.4,0,0.6-0.2
		c0.1-0.1,0.2-0.2,0.2-0.4c0-0.3,0-0.4-0.2-0.6c0.1-0.2,0.1-0.3,0.1-0.5c0-0.2,0-0.3-0.1-0.5h0.4c0.1,0,0.1,0,0.2,0
		C40.7,45.3,40.8,45.4,40.9,45.5z M23.8,41.2c0-0.1-0.1-0.1-0.1-0.2c0-0.1,0-0.1,0-0.2c0-0.1,0.1-0.1,0.1-0.2c0,0.1,0,0.1,0,0.2
		c0,0.1,0.1,0.1,0.1,0.2c0,0.1,0.1,0.1,0.1,0.2c0.1,0.1,0.1,0.2,0.1,0.3c0,0.1,0,0.2-0.1,0.3c0,0.1-0.1,0.1-0.1,0.2
		c0-0.1,0-0.1,0-0.2c0-0.1-0.1-0.1-0.1-0.2C23.9,41.3,23.9,41.3,23.8,41.2z M20.1,42c0-0.1,0-0.1,0-0.2l0.1-0.2c0,0,0-0.1,0-0.1
		c0,0,0-0.1,0-0.1l0.2,0.2c0,0,0,0.1,0,0.1c0,0.1,0,0.1,0,0.1c0,0.1-0.1,0.1-0.1,0.2c0,0.1,0,0.1,0,0.1l0.2,0.2c0,0,0.1,0,0.1,0
		c0.1,0,0.1-0.1,0.1-0.1c0-0.1,0-0.1,0-0.2l0.1,0.2c0,0,0,0.1,0,0.1c0,0,0,0.1,0,0.1l-0.1,0.2c0,0,0,0.1,0,0.1c0,0,0,0.1,0.1,0.1
		c0,0,0.1,0.1,0.1,0.1c0,0,0.1,0,0.1,0c0,0,0,0,0.1-0.1l0-0.2c0,0,0,0,0-0.1c0,0,0-0.1-0.1-0.1l0.2,0.1c0,0,0.1,0.1,0.1,0.1
		c0,0.1,0,0.1,0,0.1l0,0.2c0,0.1,0,0.1,0,0.1c0,0.1,0.1,0.1,0.1,0.1c0.1,0,0.1,0.1,0.2,0.1v-0.6h0.3v0.7c0.1,0,0.1,0,0.2-0.1
		c0.1,0,0.1,0,0.1-0.1c0,0,0-0.1,0-0.1l0-0.2c0-0.1,0-0.1,0-0.1c0-0.1,0-0.1,0.1-0.1l0.2-0.1c0,0,0,0.1-0.1,0.1c0,0,0,0,0,0.1l0,0.2
		c0,0,0,0.1,0.1,0.1c0,0,0.1,0,0.1,0c0.1,0,0.1,0,0.1-0.1c0,0,0-0.1,0.1-0.1c0,0,0-0.1,0-0.1L23,42.6c0,0,0-0.1,0-0.1
		c0-0.1,0-0.1,0-0.1l0.1-0.2c0,0.1,0,0.1,0,0.2c0,0.1,0,0.1,0.1,0.1c0,0,0.1,0,0.1,0l0.2-0.2c0,0,0-0.1,0-0.1c0-0.1,0-0.1-0.1-0.2
		c0-0.1,0-0.1,0-0.1c0,0,0-0.1,0-0.1l0.2-0.2c0,0,0,0.1,0,0.1c0,0.1,0,0.1,0,0.1l0.1,0.2c0,0.1,0,0.1,0,0.2s0,0.1,0,0.2
		c0,0.1-0.1,0.1-0.1,0.2c-0.1,0.1-0.1,0.1-0.2,0.2c-0.1,0.1-0.1,0.1-0.2,0.2c0,0.1,0,0.1,0,0.2c0,0.1-0.1,0.1-0.1,0.2
		c-0.1,0.1-0.1,0.1-0.2,0.1c-0.1,0-0.1,0-0.2,0.1c0,0.1,0,0.1-0.1,0.2c0,0.1-0.1,0.1-0.1,0.1c-0.1,0.1-0.1,0.1-0.3,0.2
		c-0.1,0.1-0.2,0.1-0.3,0.1c-0.1,0-0.2,0-0.3-0.1c-0.1,0-0.2-0.1-0.3-0.2c0,0-0.1-0.1-0.1-0.1c0-0.1-0.1-0.1-0.1-0.2
		c-0.1,0-0.1,0-0.2-0.1c-0.1,0-0.1-0.1-0.2-0.1c-0.1-0.1-0.1-0.1-0.1-0.2c0-0.1,0-0.1,0-0.2c-0.1-0.1-0.2-0.1-0.2-0.2
		s-0.1-0.1-0.2-0.2c0-0.1-0.1-0.1-0.1-0.2C20.1,42.1,20.1,42.1,20.1,42z M19.6,41.4c0-0.1,0-0.2,0.1-0.3c0-0.1,0.1-0.1,0.1-0.2
		c0-0.1,0.1-0.1,0.1-0.2c0-0.1,0-0.1,0-0.2c0.1,0.1,0.1,0.1,0.1,0.2c0,0.1,0,0.1,0,0.2c0,0.1,0,0.2-0.1,0.2c0,0.1-0.1,0.1-0.1,0.2
		c0,0.1-0.1,0.1-0.1,0.2c0,0.1,0,0.1,0,0.2c-0.1-0.1-0.1-0.1-0.1-0.2C19.7,41.6,19.6,41.5,19.6,41.4z M19.8,39.7
		c0-0.1,0.1-0.1,0.1-0.2c0-0.1,0-0.1,0-0.1c0.1,0,0.1,0.1,0.1,0.2c0.1,0.1,0.1,0.2,0.1,0.3c0,0.1,0,0.2-0.1,0.2l-0.2,0.3
		c0,0,0,0.1-0.1,0.1c0,0.1-0.1,0.1-0.1,0.2c0,0.1,0,0.1-0.1,0.2c0-0.1,0-0.1,0-0.2c0-0.1,0-0.1-0.1-0.2c0-0.1,0-0.2,0.1-0.3
		L19.8,39.7z M20.6,37.8h0.9c0,0,0.1,0,0.1,0.1c0.1,0.1,0,0.1,0,0.2l0,0.1c0,0-0.1-0.1-0.1-0.1h-0.3c0.1,0.1,0.1,0.1,0.1,0.2
		c0,0.1-0.1,0.3-0.2,0.3c-0.1,0-0.2-0.1-0.2-0.3c0-0.1,0-0.1,0.1-0.2l0,0h-0.3c-0.1,0-0.2-0.1-0.2-0.1c-0.1-0.1-0.1-0.2-0.1-0.3
		C20.4,37.8,20.5,37.8,20.6,37.8z M21.2,36.6l0.3,0.4c0,0,0,0.1,0.1,0.1c0,0,0.1,0,0.1,0.1h-0.3c-0.1,0-0.1,0-0.2-0.1
		c-0.1,0-0.1-0.1-0.1-0.1l-0.3-0.3c0,0,0-0.1-0.1-0.1c0,0-0.1,0-0.1-0.1H21c0.1,0,0.1,0,0.1,0C21.2,36.5,21.2,36.5,21.2,36.6z
		 M22.4,37C22.4,37.1,22.4,37.1,22.4,37c0.1,0.1,0.1,0.1,0.2,0.2h-0.3c-0.1,0-0.1,0-0.2-0.1C22,37.1,22,37,22,37l-0.3-0.5
		c0,0,0-0.1-0.1-0.1c-0.1-0.1-0.1-0.1-0.2-0.1h0.3c0.1,0,0.1,0,0.2,0.1c0.1,0,0.1,0.1,0.1,0.1L22.4,37z M23.3,37.1h-0.3
		c-0.1,0-0.1,0-0.2-0.1c-0.1,0-0.1-0.1-0.1-0.1l-0.3-0.3c0,0,0-0.1-0.1-0.1c0,0-0.1,0-0.1-0.1h0.3c0.1,0,0.1,0,0.1,0
		c0,0,0.1,0,0.1,0.1l0.3,0.4c0,0,0,0.1,0.1,0.1C23.2,37.1,23.3,37.1,23.3,37.1z M23.6,37.7c0,0.1,0,0.2-0.1,0.3
		c-0.1,0.1-0.1,0.1-0.2,0.1h-0.3c0.1,0.1,0.1,0.1,0.1,0.2c0,0.1-0.1,0.3-0.2,0.3c-0.1,0-0.2-0.1-0.2-0.3c0-0.1,0-0.1,0.1-0.2l0,0
		h-0.3c-0.1,0-0.1,0-0.2,0.1v-0.1c0,0,0-0.1,0-0.1c0-0.1,0.1-0.2,0.2-0.2h0.9C23.4,37.8,23.5,37.8,23.6,37.7z M24.3,38.3
		c0,0.6-0.3,1.2-0.9,1.3c0,0.4-0.2,0.6-0.5,0.7c0,0.3,0,0.6,0,0.9v0c0.1,0.2,0.1,0.4,0.1,0.5c0,0.3-0.3,0.6-0.6,0.5
		c-0.1,0-0.2,0-0.3,0c-0.4,0-0.5,0.1-0.8-0.1C21,41.9,21,41.8,21,41.7c0-0.2,0-0.4,0.1-0.6c-0.1-0.3-0.1-0.6,0-0.9
		c-0.3-0.1-0.5-0.3-0.5-0.7c-0.6-0.1-1-0.7-0.9-1.3c0-0.2,0.1-0.4,0.3-0.5v0.5c0,0.5,0.3,0.9,0.8,0.9h0.1c-0.1,0.9,1.1,1,1.1,0.2
		c-0.2-0.1-0.3-0.2-0.3-0.4h0.8c0,0.2-0.1,0.3-0.3,0.4c-0.1,0.7,1.1,0.7,1.1-0.2h0.1c0.5,0,0.8-0.4,0.8-0.9v-0.5
		C24.2,37.9,24.3,38.1,24.3,38.3z M24.5,40.4c0,0.1,0,0.1-0.1,0.2c0,0.1,0,0.1,0,0.2c0-0.1,0-0.1-0.1-0.2c0-0.1,0-0.1-0.1-0.2
		c0,0,0-0.1-0.1-0.1L24,40.1C24,40,23.9,40,23.9,39.9c0-0.1,0-0.2,0.1-0.3c0-0.1,0.1-0.1,0.1-0.2c0,0.1,0,0.1,0,0.1
		c0,0.1,0,0.1,0.1,0.2l0.3,0.4C24.5,40.2,24.5,40.3,24.5,40.4z M37.7,43.9h-1c-0.4,0-0.5-0.1-0.8-0.4c-0.1-0.1-0.1-0.2-0.2-0.3
		c0.2,0.2,0.5,0.3,0.7,0.3c0.2,0,0.5,0,0.7,0c0.2,0,0.3,0.1,0.4,0.2C37.7,43.7,37.7,43.8,37.7,43.9z M22.7,41.7
		c0.1-0.3-0.5-0.3-0.7-0.3c-0.1,0-0.2,0-0.3,0c-0.1,0-0.4,0.1-0.4,0.3c0.1,0.2,0.2,0.2,0.4,0.2c0.1,0,0.2,0,0.3,0s0.2,0,0.3,0
		C22.4,41.9,22.6,41.9,22.7,41.7z M22.5,41.2c0-0.3,0.1-0.5,0.1-0.8v-0.1l-0.3,0.3c0,0,0-0.1-0.1-0.1c0-0.1-0.1-0.2-0.1-0.2
		c-0.1,0-0.1,0-0.2,0c-0.1,0-0.1,0-0.2,0h0c-0.1,0-0.2,0.3-0.2,0.3l-0.3-0.3c0,0.3,0,0.6,0.1,0.9c0.2,0,0.4-0.1,0.6,0
		C22.2,41.1,22.3,41.1,22.5,41.2z M34.9,37.3c0,0,0-0.1,0-0.1c0,0,0-0.1,0-0.1c-0.7,0.2-1.1,0.3-1.8,0.5c-0.8,0.2-1.2,0.4-1.9,0.6
		c-0.7,0.2-1.1,0.4-1.9,0.5c-0.4,0.1-0.6,0.1-1,0.1c-0.4,0-0.6,0-0.8-0.1c-0.2-0.1-0.4-0.3-0.5-0.5c0-0.1,0-0.2,0-0.3
		c0.1-0.1,0.1-0.1,0.3-0.1c0.1,0,0.3,0.1,0.3,0.2c0,0.1,0,0.2-0.1,0.3c0.1,0,0.2,0,0.3,0c0.2,0,0.3,0,0.5-0.1
		c0.1-0.1,0.2-0.2,0.2-0.4c0-0.2-0.1-0.3-0.2-0.5c-0.1-0.1-0.2-0.1-0.3-0.1c0.2-0.1,0.3-0.1,0.5,0c0.1,0,0.1,0.1,0.2,0.2
		c0.1,0.1,0.1,0.3,0.1,0.5c0.4,0,0.6,0,0.9-0.1c0.4-0.1,0.6-0.3,0.9-0.6c0.3-0.3,0.5-0.5,0.7-0.9c-0.3,0.2-0.5,0.2-0.8,0.3
		c-0.9,0.2-1.5-0.2-2.2-0.2c-0.4,0-0.9,0.1-1.3,0.2c-0.5,0.2-0.8,0.4-1,0.8c-0.2,0.4-0.2,0.7,0,1.2c0.1,0.4,0.4,0.6,0.7,0.8
		c0.5,0.3,0.8,0.3,1.3,0.3c0.8,0.1,1.2-0.1,1.9-0.2c0.7-0.1,1-0.3,1.7-0.5c0.7-0.2,1.1-0.3,1.9-0.5c0.3-0.3,0.4-0.4,0.7-0.7
		C34.5,37.6,34.6,37.5,34.9,37.3z M26.4,32.8c0.2-0.1,0.3-0.1,0.5-0.1c-0.2,0.1-0.2,0.1-0.4,0.2c-0.2,0.2-0.3,0.3-0.3,0.5
		c-0.1,0-0.1,0.1-0.2,0.1c-0.1,0.1-0.1,0.2-0.2,0.3c0,0.2,0,0.3,0.1,0.5c0.1-0.1,0.2-0.2,0.4-0.3c0.1-0.1,0.2-0.1,0.4-0.2
		c0-0.2,0.1-0.3,0.2-0.5c0.2-0.2,0.4-0.3,0.6-0.4c-0.2,0.1-0.3,0.1-0.4,0.3c-0.2,0.2-0.2,0.4-0.3,0.7c0,0.2,0,0.3,0.1,0.5
		c0.1-0.1,0.2-0.2,0.3-0.3c0.1-0.1,0.2-0.1,0.3-0.1c0.1,0,0.2,0,0.3,0c0.1,0,0.2,0,0.3,0c0.2,0,0.4,0,0.5-0.2
		c0.2-0.1,0.2-0.3,0.2-0.5c0-0.1,0-0.1,0-0.2c0-0.1,0-0.1-0.1-0.2c0.1,0,0.2,0.1,0.2,0.1c0.1,0.1,0.1,0.2,0.1,0.3
		c0,0.1,0,0.2-0.1,0.3c0.2,0,0.4,0,0.6-0.1c0.2-0.1,0.3-0.2,0.4-0.4c0.1-0.1,0.1-0.2,0.1-0.3c0.2-0.1,0.3-0.2,0.4-0.3
		c0.1-0.1,0.2-0.2,0.3-0.3l0.1,0.4c0,0.1,0,0.1,0,0.3c0,0.1,0,0.1,0,0.2l0.4-0.4c0.1-0.1,0.1-0.1,0.1-0.2c0-0.1,0-0.1,0-0.2
		l-0.2-0.7c0-0.1,0-0.1,0-0.3c0-0.1,0-0.1,0.1-0.2l0.2-0.2c0,0.1,0,0.1,0,0.1c0,0.1,0,0.1,0,0.2l0.2,0.6c0,0.1,0,0.1,0,0.2
		c0,0.1,0,0.1,0,0.2l0.4-0.4c0.1-0.1,0.1-0.1,0.1-0.3c0-0.1,0-0.1,0-0.2l-0.2-0.7c0-0.1,0-0.1,0-0.3c0-0.1,0-0.1,0.1-0.2l0.2-0.2
		c0,0.1,0,0.1,0,0.1c0,0.1,0,0.1,0,0.2l0.2,0.6c0,0.1,0,0.1,0,0.2s0,0.1,0,0.2l0.3-0.4c0.1-0.1,0.1-0.1,0.1-0.2c0-0.1,0-0.1,0-0.2
		l0-0.2c0,0,0-0.2,0-0.3c0-0.2,0.1-0.2,0.2-0.3c0.2-0.2,0.3-0.3,0.5-0.5c0.3-0.2,0.4-0.4,0.7-0.6c0-0.2,0-0.3-0.1-0.5
		c-0.1-0.1-0.1-0.2-0.2-0.3c-0.1-0.1-0.1-0.1-0.2-0.1c-0.1,0-0.1-0.1-0.2-0.1c-0.3-0.1-0.4-0.1-0.7,0c-0.1,0-0.2,0-0.3,0.1
		c0,0-0.2,0.1-0.2,0.1c0,0.1,0,0.2,0,0.3c0,0.1-0.1,0.2-0.1,0.3c-0.1,0.1-0.2,0.1-0.4,0.2c-0.3,0.1-0.4,0-0.7,0.1s-0.5,0-0.7,0.2
		c-0.5,0.2-0.7,0.5-1,1c-0.2,0.4-0.3,0.7-0.5,1c-0.1,0.1-0.1,0.1-0.2,0.2c0.2,0,0.3-0.1,0.4-0.1c0.3,0,0.4,0,0.7,0
		c-0.1,0-0.2,0.1-0.3,0.1c-0.1,0-0.1,0.1-0.2,0.1c-0.1,0.3-0.2,0.4-0.4,0.6c-0.2,0.2-0.4,0.2-0.7,0.2c-0.2,0-0.4-0.1-0.6-0.1
		c-0.3-0.1-0.4-0.2-0.7-0.2c-0.2,0-0.3,0-0.5,0.1c-0.2,0.1-0.3,0.2-0.5,0.4c-0.1,0.2-0.2,0.4-0.2,0.6c-0.1,0-0.2,0.1-0.3,0.2
		c-0.1,0.1-0.2,0.2-0.2,0.4c0,0.1,0,0.2,0.1,0.3c0.1-0.1,0.2-0.2,0.3-0.3c0.1-0.1,0.2-0.1,0.4-0.2c0.1-0.2,0.1-0.3,0.2-0.4
		C26.2,32.9,26.3,32.9,26.4,32.8z M31.1,30.3c0.1-0.3,0.3-0.4,0.5-0.6c0.2-0.1,0.3-0.2,0.6-0.2c0.2,0,0.3,0,0.4-0.1
		c0.2-0.1,0.3-0.1,0.5-0.2c-0.1,0.2-0.2,0.3-0.4,0.4c-0.3,0.2-0.5,0.2-0.8,0.4c-0.4,0.3-0.6,0.6-0.8,1C31,30.7,31,30.5,31.1,30.3z
		 M40.9,32.1c0-0.1,0-0.2,0-0.4c0-0.1,0-0.2-0.1-0.3c-0.1-0.1-0.2-0.2-0.3-0.2c-0.1,0-0.4-0.1-0.5-0.1h-0.1c-0.1,0-0.1,0-0.2,0
		c-0.1,0-0.2,0-0.3-0.1l-0.2-0.2c0.1,0,0.1,0,0.1,0c0,0,0.1,0,0.1,0H40c0.1,0,0.2,0,0.3,0c0.1,0,0.1,0,0.2,0.1l-0.4-0.5
		c-0.1-0.1-0.1-0.1-0.2-0.2c-0.1,0-0.1-0.1-0.2-0.1H39c-0.1,0-0.1,0-0.2,0c-0.1,0-0.1-0.1-0.1-0.1l-0.1-0.2c0.1,0,0.1,0,0.1,0
		c0,0,0.1,0,0.1,0h0.6c0.1,0,0.2,0,0.3,0c0.1,0,0.1,0,0.2,0.1l-0.4-0.5c-0.1-0.1-0.1-0.1-0.2-0.1c-0.1,0-0.1-0.1-0.2-0.1h-0.7
		c-0.1,0-0.1,0-0.2,0c-0.1,0-0.1-0.1-0.1-0.1l-0.1-0.2c0,0,0.1,0,0.1,0c0,0,0.1,0,0.1,0h0.6c0.1,0,0.2,0,0.3,0c0.1,0,0.1,0,0.2,0.1
		l-0.4-0.5c-0.1-0.1-0.1-0.1-0.2-0.2c-0.1,0-0.1-0.1-0.2-0.1h-0.7c-0.1,0-0.1,0-0.2,0c0,0-0.1,0-0.1-0.1c0,0-0.1-0.1-0.2-0.3
		c-0.1-0.2-0.3-0.6-0.3-0.6c0.3,0,0.4,0,0.7-0.1c0.4-0.1,0.7-0.3,1-0.6c0.2-0.3,0.2-0.5,0.2-0.9c0-0.4-0.1-0.6-0.3-0.9
		c-0.2-0.3-0.4-0.4-0.6-0.5c-0.3-0.2-0.5-0.2-0.8-0.3c-0.3-0.1-0.5-0.1-0.7-0.3c-0.1-0.2-0.1-0.3,0-0.5c0.1-0.1,0.1-0.2,0.3-0.3
		c-0.3-0.1-0.6-0.1-1,0c-0.2,0.1-0.4,0.2-0.5,0.4c-0.1,0.3-0.2,0.5-0.1,0.7c-0.3,0.2-0.5,0.3-0.8,0.5c-0.4,0.3-0.6,0.5-1,0.9
		c0.3-0.1,0.5-0.1,0.8-0.2c0.3,0,0.5,0,0.8-0.1c0-0.2,0-0.3,0.1-0.4c0.1-0.3,0.4-0.4,0.7-0.4c-0.1,0.1-0.2,0.1-0.3,0.2
		c-0.1,0.2-0.2,0.3-0.1,0.5c0.1,0.2,0.2,0.3,0.3,0.3c0.1,0,0.2,0,0.2-0.1c0-0.1,0-0.2,0-0.3c0.1-0.3,0.3-0.5,0.6-0.4
		c-0.1,0-0.1,0.1-0.2,0.2c-0.2,0.2-0.2,0.5,0,0.8c0.1,0.2,0.3,0.3,0.6,0.2c0-0.1-0.1-0.2-0.1-0.3c0-0.2,0.3-0.5,0.5-0.5
		c0.2,0,0.5,0.2,0.5,0.4c0,0.5-0.3,0.6-0.6,0.7c-0.2,0-0.5-0.1-0.7-0.1C36.2,26,36,26,35.7,25.9c-0.7-0.1-1.1-0.2-1.8-0.2
		c-0.5,0-1,0.1-1.5,0.2c-0.9,0.2-1.1,0.3-2,0.5c-1,0.2-1.6,0.4-2.5,0.4c-1,0-1.6-0.1-2.6-0.4c0.1,0.2,0.1,0.3,0.2,0.5
		c0,0.1,0,0.2,0,0.3c-0.1-0.3-0.2-0.4-0.3-0.6c-0.2-0.3-0.4-0.4-0.6-0.7c0-0.1-0.1-0.1-0.1-0.2c0-0.1,0-0.1,0-0.2
		c0-0.1,0-0.1,0.1-0.2c0,0.1,0,0.1,0,0.2c0,0,0,0.1,0.1,0.1l0.6,0.6c0.1-0.4,0.1-0.7-0.1-1.1c-0.1-0.3-0.2-0.5-0.3-0.8
		C25,24.2,25,24,25,23.7c0-0.2,0-0.4-0.1-0.6c0,0.2-0.1,0.3-0.2,0.4c-0.1,0.1-0.1,0.1-0.2,0.1c-0.1,0.1-0.1,0.1-0.2,0.2
		c0,0.1,0,0.1,0,0.2c0,0.1,0,0.2,0.1,0.3c-0.1-0.1-0.2-0.2-0.3-0.3C24,24,24,23.9,24,23.8c0-0.1,0-0.2,0-0.3c0-0.1,0.1-0.1,0.2-0.2
		c0.1-0.1,0.2,0,0.3-0.1c0.1,0,0.2-0.1,0.2-0.2c0.1-0.1,0.2-0.2,0.2-0.4c-0.2-0.1-0.3-0.1-0.6,0c-0.1,0-0.2,0-0.3,0.1
		c-0.2-0.2-0.3-0.3-0.5-0.3c-0.1,0-0.2-0.1-0.4-0.1c-0.2-0.2-0.3-0.2-0.5-0.3c-0.2-0.1-0.3,0-0.6,0s-0.4,0-0.6,0
		c-0.2,0.1-0.4,0.1-0.5,0.3c-0.1,0-0.2,0-0.4,0.1c-0.2,0.1-0.4,0.2-0.5,0.3c-0.1,0-0.2,0-0.3-0.1c-0.2,0-0.3,0-0.6,0.1
		c0,0.1,0.1,0.2,0.2,0.4c0.1,0.1,0.1,0.1,0.3,0.2c0.1,0,0.2,0,0.3,0.1c0.1,0,0.1,0.1,0.2,0.2c0.1,0.1,0.1,0.2,0,0.3
		c0,0.1-0.1,0.2-0.1,0.3c-0.1,0.1-0.2,0.2-0.3,0.3c0.1-0.1,0.1-0.2,0.1-0.3c0-0.1,0-0.1,0-0.2c0-0.1-0.1-0.2-0.2-0.2
		c-0.1,0-0.1-0.1-0.2-0.1C19,23.4,19,23.3,19,23.1c-0.1,0.2-0.1,0.4-0.1,0.6c0,0.3,0,0.5,0.1,0.8c-0.2,0.3-0.3,0.4-0.3,0.8
		c-0.1,0.4-0.1,0.7-0.1,1.1l0.6-0.6c0,0,0-0.1,0.1-0.1c0-0.1,0-0.1,0-0.2c0,0.1,0.1,0.1,0.1,0.2c0,0.1,0,0.1,0,0.2
		c0,0.1-0.1,0.1-0.1,0.2c-0.2,0.3-0.4,0.4-0.6,0.7c-0.1,0.2-0.2,0.4-0.3,0.6c0-0.1,0-0.1-0.1-0.2c0-0.1,0-0.1,0-0.2
		c-0.3-0.2-0.5-0.3-0.8-0.5c-0.3-0.2-0.5-0.3-0.7-0.6c-0.3-0.3-0.6-0.5-0.6-1c0-0.2,0.2-0.3,0.2-0.5c0.1-0.3,0.2-0.4,0.2-0.7
		c0-0.3-0.1-0.5-0.3-0.7c0-0.2,0-0.3-0.1-0.4c-0.1-0.2-0.3-0.3-0.5-0.4c0.1,0.1,0.1,0.2,0.1,0.4c0,0.1,0,0.2-0.1,0.3
		c0.1,0.1,0.1,0.2,0.1,0.3c0,0.2-0.1,0.3-0.2,0.4c0-0.2,0-0.4-0.1-0.6c-0.1-0.2-0.2-0.3-0.4-0.4c-0.1-0.3-0.3-0.5-0.6-0.5
		c-0.2,0-0.3,0-0.4,0.2c0.2,0,0.2,0.1,0.3,0.2c0,0.1,0.1,0.1,0.1,0.2c-0.1,0-0.1,0.1-0.1,0.1c-0.1,0.1-0.1,0.1-0.1,0.2
		c0.2,0,0.4,0.1,0.5,0.3c0.1,0.2,0.2,0.3,0.2,0.6c0-0.1-0.1-0.2-0.2-0.3c-0.2-0.3-0.5-0.3-0.8-0.3C14,23.1,13.8,23,13.6,23
		c-0.2,0-0.3,0.1-0.4,0.3c0.1,0,0.2,0,0.3,0.1c0.1,0.1,0.1,0.1,0.2,0.2c-0.1,0.1-0.1,0.1-0.1,0.2c-0.1,0.2-0.1,0.3-0.1,0.5
		c0,0.2,0,0.3,0.2,0.5c0.1,0.2,0.3,0.3,0.5,0.3c0.1,0,0.1,0,0.2,0c0.1,0,0.1-0.1,0.2-0.1c0.2,0,0.3,0.3,0,0.4c-0.1,0-0.1,0-0.2,0
		c-0.1,0-0.1-0.1-0.2-0.1c-0.1,0-0.2,0.1-0.3,0.2c-0.1,0.1-0.1,0.2-0.1,0.3c-0.1,0-0.1,0-0.2,0c-0.1,0-0.1,0-0.2-0.1
		c0,0.2,0,0.3,0.1,0.4c0.1,0.1,0.2,0.2,0.4,0.2c0.1,0.2,0.2,0.4,0.5,0.5c0.1,0.1,0.2,0.1,0.3,0.1c0.2,0,0.2-0.1,0.4-0.2
		c0.1,0,0.1-0.1,0.2-0.1c0.1,0,0.2,0,0.3,0.1c0.1,0.1,0.2,0.2,0.2,0.4c0,0.2-0.1,0.3-0.3,0.4c-0.1,0.1-0.2,0.1-0.4,0l0.3,0.3
		c0.1,0.1,0.1,0.1,0.2,0.1c0.1,0,0.2,0.1,0.3,0.1h0.8c0.1,0,0.2,0,0.3,0c0.1,0,0.2,0,0.3,0.1l0.2,0.2c-0.1,0-0.1,0-0.2,0
		c0,0-0.1,0-0.1,0h-0.8c-0.1,0-0.2,0-0.3,0c-0.1,0-0.1,0-0.2-0.1l0.4,0.4c0.1,0.1,0.1,0.1,0.2,0.1c0.1,0,0.2,0.1,0.3,0.1h0.8
		c0.1,0,0.2,0,0.3,0c0.1,0,0.2,0,0.3,0.1l0.2,0.2c-0.1,0-0.1,0-0.2,0c-0.1,0-0.1,0-0.1,0h-0.8c-0.1,0-0.2,0-0.3,0
		c-0.1,0-0.1,0-0.2-0.1l0.4,0.4c0.1,0.1,0.1,0.1,0.2,0.1c0.1,0,0.2,0.1,0.3,0.1H18c0.1,0,0.2,0,0.3,0c0.1,0,0.2,0,0.3,0.1l0.2,0.2
		c-0.1,0-0.1,0-0.2,0c0,0-0.1,0-0.1,0h-0.8c-0.1,0-0.2,0-0.3,0c-0.1,0-0.1,0-0.2-0.1l0.4,0.4c0.1,0.1,0.1,0.1,0.2,0.1
		c0.1,0,0.2,0.1,0.3,0.1h1.4c-0.1-0.1-0.2-0.2-0.3-0.4c-0.1-0.1-0.1-0.2-0.1-0.3c0-0.1,0-0.2,0-0.3c-0.1,0-0.1-0.1-0.1-0.1
		c-0.1-0.1-0.1-0.1-0.2-0.3c-0.1-0.2-0.1-0.3-0.1-0.5c0-0.1,0-0.2,0-0.3c0-0.1,0.1-0.2,0.1-0.3c0.1-0.1,0.1-0.1,0.2-0.2
		c0,0,0.1-0.1,0.1-0.1c0-0.1,0.1-0.1,0.1-0.2l0.1,0.3c0,0,0,0.1,0,0.1c0,0.1,0,0.1-0.1,0.1c-0.1,0.1-0.1,0.1-0.1,0.2
		c-0.1,0.1-0.1,0.2-0.1,0.3c0,0.1,0,0.2,0,0.3c0,0.1,0,0.1,0.1,0.2s0.1,0.1,0.1,0.1l0.1-0.2l0.1-0.2c0,0,0-0.1,0-0.1
		c0-0.1,0-0.1,0-0.1l0.2,0.2c0,0.1,0,0.1,0,0.2c0,0.1,0,0.1,0,0.2L19.3,29c0,0.1,0,0.1-0.1,0.2c0,0.1,0,0.1,0,0.2
		c0,0.1,0.1,0.1,0.1,0.2s0.1,0.1,0.2,0.2c0-0.2,0.1-0.3,0.1-0.4c0-0.1,0.1-0.2,0.1-0.3c0,0,0-0.1,0-0.1c0-0.1,0-0.1,0-0.2l0.2,0.3
		c0,0,0,0.1,0,0.2c0,0.1,0,0.1,0,0.1l-0.1,0.4c0,0.1,0,0.1,0,0.2c0,0.1,0.1,0.2,0.2,0.3c0.1,0.1,0.1,0.1,0.2,0.1l0.1-0.4
		c0-0.1,0-0.1,0-0.2c0-0.1,0-0.1,0-0.2l0.2,0.2c0.1,0.1,0,0.1,0.1,0.2c0,0.1,0,0.1,0,0.2l-0.1,0.3c0,0.1,0,0.2,0,0.3
		c0,0.1,0,0.2,0.1,0.3c-0.1,0-0.1-0.1-0.2-0.1c-0.1-0.1-0.1-0.1-0.1-0.2c0-0.1,0-0.1-0.1-0.2c-0.1,0-0.1-0.1-0.2-0.1
		c-0.1-0.1-0.2-0.1-0.3-0.3h-1.3c-0.7,0.4-0.5,0.4-0.9,0.6c-0.6,0.3-0.9,0.7-1.5,0.7c-0.3,0-0.4-0.1-0.6-0.2c-0.2,0-0.2-0.1-0.4-0.1
		c-0.2,0-0.4,0-0.5,0.1c-0.2,0.1-0.2,0.2-0.3,0.4c0.2-0.1,0.3-0.1,0.5-0.1c0.2,0,0.3,0.1,0.4,0.2c-0.1,0-0.2,0-0.4,0
		c-0.3,0-0.5,0-0.7,0.2c-0.2,0.2-0.4,0.3-0.4,0.6c0,0.2,0,0.3,0,0.4c-0.1,0.1-0.1,0.1-0.2,0.2c-0.1,0.1-0.2,0.2-0.2,0.3
		c0,0.1,0,0.3,0.2,0.4c0.1-0.2,0.1-0.3,0.3-0.3c0.1-0.1,0.2-0.1,0.3-0.1c0,0,0.1,0.1,0.1,0.1c0.1,0,0.1,0,0.2,0.1l0.1-0.2
		c0-0.3,0-0.5,0.2-0.7c0.2-0.3,0.4-0.4,0.8-0.3c-0.3,0.1-0.5,0.2-0.6,0.5c-0.1,0.2-0.1,0.3-0.1,0.5c-0.1,0.1-0.2,0.1-0.3,0.3
		c-0.1,0.2-0.1,0.4,0,0.6c0.1-0.1,0.2-0.2,0.3-0.3c0.2-0.1,0.3-0.2,0.5-0.2c0.1,0,0.2,0,0.3,0.1c0.2,0,0.2,0,0.4,0
		c-0.1-0.1-0.1-0.2-0.1-0.3c0-0.3,0.1-0.6,0.4-0.7c0.1,0,0.2-0.1,0.3,0c-0.1,0-0.2,0.1-0.3,0.2c-0.1,0.1-0.2,0.3-0.2,0.5
		c0,0.2,0.1,0.3,0.2,0.4c0.1,0.1,0.2,0.1,0.3,0.1c0,0.1,0,0.1,0,0.2c0,0.1,0,0.1-0.1,0.2c0.2,0,0.3-0.1,0.5-0.2
		c0.1-0.1,0.2-0.2,0.2-0.3c0.1,0,0.2-0.1,0.3-0.1c0.2-0.1,0.3-0.3,0.3-0.6c0-0.1-0.1-0.2-0.2-0.3c0-0.2,0.1-0.4,0.3-0.4
		c0.2,0,0.4,0.2,0.3,0.4c0,0.1,0,0.1-0.1,0.2c0.1,0,0.1,0,0.2-0.1c0.1,0,0.1-0.1,0.2-0.2l0.4-0.5c0-0.1,0-0.1,0.1-0.1
		c0.1-0.2,0.2-0.3,0.4-0.3h0.2c-0.1,0-0.1,0.1-0.1,0.1c0,0-0.1,0.1-0.1,0.1l-0.4,0.6c-0.1,0.1-0.1,0.2-0.2,0.2
		c-0.1,0.1-0.1,0.1-0.2,0.1l0.5,0c0.1,0,0.2,0,0.2-0.1c0.1,0,0.1-0.1,0.2-0.2l0.5-0.7c0.1-0.1,0.1-0.1,0.2-0.2
		c0.1,0,0.1-0.1,0.2-0.1h0.3c-0.1,0-0.1,0.1-0.1,0.1c0,0-0.1,0.1-0.1,0.1L20,32.8c-0.1,0.1-0.1,0.2-0.2,0.2
		c-0.1,0.1-0.1,0.1-0.2,0.1l0.5,0c0.1,0,0.2,0,0.2-0.1c0.1,0,0.2-0.1,0.2-0.2l0.7-1c-0.1-0.1-0.2-0.2-0.2-0.3c0-0.1,0-0.2,0-0.3
		c0-0.1,0-0.2,0-0.3c0-0.1,0.1-0.1,0.1-0.2c0-0.1,0-0.1,0-0.2c0-0.1,0-0.1,0-0.2l0.2,0.1c0,0,0.1,0.1,0.1,0.1c0,0.1,0,0.1,0,0.2
		c0,0.1,0,0.1,0,0.2c0,0.1-0.1,0.2-0.1,0.3c0,0.1,0,0.2,0,0.3c0,0.1,0.1,0.2,0.2,0.3c0.1,0.1,0.2,0.2,0.4,0.3v-1.1h0.3v1.2
		c0,0.1,0,0.1,0.1,0.2c0,0.1,0.1,0.1,0.1,0.1l0.4,0.2c0.1,0.1,0.2,0.1,0.3,0.1c0.1,0,0.2,0,0.3-0.1l0.3-0.1c-0.1,0-0.1,0-0.2,0
		c-0.1,0-0.1-0.1-0.2-0.1l-0.8-0.4c0.1-0.1,0.1-0.2,0.2-0.3c0-0.1,0-0.2,0-0.3s0-0.2-0.1-0.3c0-0.1,0-0.1,0-0.2c0-0.1,0-0.1,0-0.2
		c0-0.1,0-0.1,0.1-0.1l0.2-0.1c0,0.1,0,0.1,0,0.2c0,0.1,0,0.1,0,0.2c0,0.1,0.1,0.1,0.1,0.2c0,0.1,0,0.2,0,0.3c0,0.2,0,0.3-0.1,0.5
		l0.8,0.5c0.1,0,0.1,0.1,0.2,0.1c0.1,0,0.1,0,0.2,0l0.4-0.2c-0.1,0-0.1,0-0.2,0c-0.1,0-0.1-0.1-0.2-0.1l-0.8-0.4c0,0,0,0-0.1,0
		c0.1-0.2,0.1-0.3,0.1-0.4c0-0.1,0-0.2,0-0.3l-0.1-0.4c0-0.1,0-0.1,0-0.2c0-0.1,0-0.1,0.1-0.2l0.2-0.2c0,0.1,0,0.1,0,0.2
		c0,0.1,0,0.1,0,0.2c0,0.1,0.1,0.2,0.1,0.3c0,0.1,0,0.2,0.1,0.3c0,0.1,0,0.2,0,0.3c0,0.1-0.1,0.3-0.1,0.3l1,0.5
		c0.1,0,0.1,0.1,0.2,0.1c0.1,0,0.1,0,0.2,0l0.4-0.2c-0.1,0-0.1,0-0.2,0c-0.1,0-0.1-0.1-0.2-0.1l-0.8-0.4c0,0-0.1,0-0.1-0.1
		c-0.1,0-0.1,0-0.1-0.1c0-0.1,0-0.1,0.1-0.2c0-0.1,0-0.1,0.1-0.2c0-0.2,0-0.4,0-0.6c0-0.2-0.1-0.3-0.2-0.5c0-0.1,0-0.1,0-0.2
		c0-0.1,0-0.1,0-0.2l0.2-0.3c0,0.1,0,0.1,0,0.2c0,0.1,0,0.1,0,0.1c0,0.1,0.1,0.1,0.1,0.3c0.1,0.2,0.1,0.3,0.1,0.4
		c0.1-0.1,0.1-0.1,0.2-0.2c0.1-0.1,0.1-0.1,0.1-0.2c0-0.1,0-0.1,0-0.2c0-0.1,0-0.1-0.1-0.2l-0.2-0.3c0,0,0-0.1,0-0.1
		c0-0.1,0-0.1,0-0.2l0.2-0.2c0,0.1,0,0.1,0,0.1c0,0,0,0.1,0,0.1l0.1,0.2l0.1,0.2c0.1,0,0.1-0.1,0.1-0.1c0-0.1,0.1-0.1,0.1-0.2
		c0-0.1,0.1-0.2,0-0.3c0-0.1,0-0.2-0.1-0.3c0-0.1-0.1-0.1-0.1-0.2c0,0-0.1-0.1-0.1-0.1c0,0,0-0.1,0-0.1l0.1-0.3c0,0.1,0,0.1,0.1,0.2
		c0,0,0.1,0.1,0.1,0.1c0.1,0.1,0.1,0.1,0.2,0.2c0.1,0.1,0.1,0.1,0.1,0.3c0,0.1,0,0.2,0,0.3c0,0.2,0,0.3-0.1,0.5
		C25.2,28.9,25.1,29,25,29c0,0-0.1,0.1-0.1,0.1c0,0.1,0,0.2,0,0.3c0,0.1-0.1,0.2-0.1,0.3c-0.1,0.2-0.3,0.4-0.4,0.5c0,0,0,0.2,0,0.3
		c0,0.1,0,0.2-0.1,0.4l1.1,0.6c0.1,0,0.1,0.1,0.2,0.1c0.1,0,0.1,0,0.2,0l0.4-0.2c-0.1,0-0.1,0-0.2,0c-0.1,0-0.1-0.1-0.2-0.1L25,30.8
		c0,0-0.1,0-0.1-0.1c-0.1,0-0.1,0-0.1-0.1c0.1,0,0.2,0,0.3-0.1c0.1,0,0.2,0,0.3,0c0.1,0,0.1,0,0.2,0.1l0.6,0.3
		c0.1,0,0.1,0.1,0.2,0.1c0.1,0,0.2,0,0.2,0l0.5-0.2c-0.1,0-0.1,0-0.2,0c-0.1,0-0.1-0.1-0.1-0.2c-0.1-0.2,0.1-0.4,0.3-0.5
		c0.7-0.4,1.1-0.5,1.8-0.8c1-0.5,1.6-0.9,2.6-1.3c0.6-0.2,0.9-0.5,1.5-0.5c0.4,0,0.6,0,1,0.2c0.2,0.1,0.2,0.2,0.4,0.3
		c0.1,0.2,0.1,0.3,0.2,0.5c0,0.2,0,0.3,0,0.5c0,0.5,0,1,0.4,1.5c0.2,0.2,0.3,0.3,0.6,0.5c0.2,0.1,0.3,0.2,0.6,0.3
		c0.1,0.1,0.2,0.2,0.3,0.3c0,0.1,0,0.2,0,0.3c0.2,0,0.3,0,0.4-0.1c0.2-0.1,0.4-0.2,0.5-0.4H38c0.1,0.1,0.1,0.2,0.1,0.3
		c0,0.2,0,0.3-0.1,0.4c-0.1,0.1-0.2,0.1-0.3,0.1c-0.3,0-0.4-0.1-0.7,0c-0.2,0-0.3,0-0.5,0.1c-0.2,0.1-0.4,0.3-0.4,0.5
		c-0.1,0.2-0.1,0.3-0.1,0.5c-0.1,0.1-0.1,0.1-0.2,0.2c-0.1,0.2-0.1,0.4,0,0.6c0.1-0.1,0.2-0.2,0.3-0.3c0.1-0.1,0.2-0.1,0.4-0.1
		c0-0.4,0.2-0.6,0.5-0.8c0.2-0.1,0.3-0.1,0.4-0.1c-0.2,0.1-0.3,0.2-0.4,0.4c-0.2,0.3-0.3,0.5-0.3,0.8c-0.1,0.1-0.1,0.2-0.1,0.3
		c0,0.1,0,0.2,0.1,0.3c0.2-0.2,0.3-0.3,0.5-0.4c0.1,0,0.2-0.1,0.3-0.1c0.1,0,0.2,0,0.3,0c0.1,0,0.2,0,0.2,0c-0.1-0.3-0.1-0.5,0-0.8
		c0.2-0.2,0.4-0.3,0.7-0.3c-0.2,0.1-0.3,0.1-0.4,0.3c-0.1,0.1-0.1,0.3-0.1,0.4c0,0.2,0.1,0.3,0.3,0.4c0,0.1,0,0.2,0,0.3
		c0,0.1,0.1,0.1,0.2,0.2c0-0.1,0.1-0.2,0.2-0.3c0.1-0.1,0.1-0.1,0.2-0.1c0.1-0.1,0.2,0,0.4-0.1c0.3-0.1,0.4,0,0.6-0.2
		c0.1-0.1,0.2-0.2,0.2-0.4c0-0.2,0-0.4-0.2-0.6c0.1-0.2,0.1-0.3,0.1-0.5c0-0.2,0-0.3-0.1-0.5h0.4c0.1,0,0.1,0,0.2,0
		C40.7,31.9,40.8,32,40.9,32.1z M23.8,27.8c0-0.1-0.1-0.1-0.1-0.3c0-0.1,0-0.1,0-0.2c0-0.1,0.1-0.1,0.1-0.2c0,0.1,0,0.1,0,0.2
		c0,0.1,0.1,0.1,0.1,0.2c0,0.1,0.1,0.1,0.1,0.2c0.1,0.1,0.1,0.2,0.1,0.3c0,0.1,0,0.2-0.1,0.3c0,0.1-0.1,0.1-0.1,0.2
		c0-0.1,0-0.1,0-0.2c0-0.1-0.1-0.1-0.1-0.2C23.9,27.9,23.9,27.9,23.8,27.8z M20.1,28.7c0-0.1,0-0.1,0-0.2l0.1-0.2c0,0,0-0.1,0-0.1
		c0,0,0-0.1,0-0.1l0.2,0.2c0,0,0,0.1,0,0.1c0,0.1,0,0.1,0,0.1c0,0.1-0.1,0.1-0.1,0.2c0,0.1,0,0.1,0,0.1l0.2,0.2c0,0,0.1,0,0.1,0
		c0.1,0,0.1-0.1,0.1-0.1c0-0.1,0-0.1,0-0.2l0.1,0.2c0,0,0,0.1,0,0.1c0,0,0,0.1,0,0.1l-0.1,0.2c0,0,0,0.1,0,0.1c0,0,0,0.1,0.1,0.1
		c0,0,0.1,0.1,0.1,0.1c0,0,0.1,0,0.1,0c0,0,0-0.1,0.1-0.1l0-0.2c0,0,0,0,0-0.1c0,0,0-0.1-0.1-0.1l0.2,0.1c0,0,0.1,0.1,0.1,0.1
		c0,0.1,0,0.1,0,0.1l0,0.2c0,0.1,0,0.1,0,0.1c0,0.1,0.1,0.1,0.1,0.1c0.1,0,0.1,0.1,0.2,0.1v-0.7h0.3v0.7c0.1,0,0.1,0,0.2-0.1
		c0.1,0,0.1,0,0.1-0.1c0,0,0-0.1,0-0.1l0-0.2c0-0.1,0-0.1,0-0.1c0-0.1,0-0.1,0.1-0.1l0.2-0.1c0,0,0,0.1-0.1,0.1c0,0,0,0,0,0.1l0,0.2
		c0,0,0,0.1,0.1,0.1c0,0,0.1,0,0.1,0c0.1,0,0.1,0,0.1-0.1c0,0,0-0.1,0.1-0.1c0,0,0-0.1,0-0.1L23,29.2c0,0,0-0.1,0-0.1
		c0-0.1,0-0.1,0-0.1l0.1-0.2c0,0.1,0,0.1,0,0.2c0,0.1,0,0.1,0.1,0.1c0,0,0.1,0,0.1,0l0.2-0.2c0,0,0-0.1,0-0.1c0-0.1,0-0.1-0.1-0.2
		c0-0.1,0-0.1,0-0.1c0,0,0-0.1,0-0.1l0.2-0.2c0,0,0,0.1,0,0.1c0,0.1,0,0.1,0,0.1l0.1,0.2c0,0.1,0,0.1,0,0.2c0,0.1,0,0.1,0,0.2
		c0,0.1-0.1,0.1-0.1,0.2c-0.1,0.1-0.1,0.1-0.2,0.2c-0.1,0.1-0.1,0.1-0.2,0.2c0,0.1,0,0.1,0,0.2c0,0.1-0.1,0.1-0.1,0.2
		c-0.1,0.1-0.1,0.1-0.2,0.1c-0.1,0-0.1,0-0.2,0.1c0,0.1,0,0.1-0.1,0.2c0,0.1-0.1,0.1-0.1,0.1c-0.1,0.1-0.1,0.1-0.3,0.2
		c-0.1,0.1-0.2,0.1-0.3,0.1c-0.1,0-0.2,0-0.3-0.1c-0.1,0-0.2-0.1-0.3-0.2c0,0-0.1-0.1-0.1-0.1c0-0.1-0.1-0.1-0.1-0.2
		c-0.1,0-0.1,0-0.2-0.1c-0.1,0-0.1-0.1-0.2-0.1c-0.1-0.1-0.1-0.1-0.1-0.2c0-0.1,0-0.1,0-0.2c-0.1-0.1-0.2-0.1-0.2-0.2
		c-0.1-0.1-0.1-0.1-0.2-0.2c0-0.1-0.1-0.1-0.1-0.2C20.1,28.8,20.1,28.7,20.1,28.7z M19.6,28c0-0.1,0-0.2,0.1-0.3
		c0-0.1,0.1-0.1,0.1-0.2c0-0.1,0.1-0.1,0.1-0.2c0-0.1,0-0.1,0-0.2c0.1,0.1,0.1,0.1,0.1,0.2c0,0.1,0,0.1,0,0.2c0,0.1,0,0.2-0.1,0.3
		c0,0.1-0.1,0.1-0.1,0.2c0,0.1-0.1,0.1-0.1,0.2c0,0.1,0,0.1,0,0.2c-0.1-0.1-0.1-0.1-0.1-0.2C19.7,28.2,19.6,28.1,19.6,28z
		 M19.8,26.3c0-0.1,0.1-0.1,0.1-0.2c0-0.1,0-0.1,0-0.1c0.1,0,0.1,0.1,0.1,0.2c0.1,0.1,0.1,0.2,0.1,0.3c0,0.1,0,0.2-0.1,0.3L19.7,27
		c0,0,0,0.1-0.1,0.1c0,0.1-0.1,0.1-0.1,0.2c0,0.1,0,0.1-0.1,0.2c0-0.1,0-0.1,0-0.2c0-0.1,0-0.1-0.1-0.2c0-0.1,0-0.2,0.1-0.3
		L19.8,26.3z M20.6,24.4h0.9c0,0,0.1,0,0.1,0.1c0.1,0.1,0,0.1,0,0.2l0,0.1c0,0-0.1-0.1-0.1-0.1h-0.3c0.1,0.1,0.1,0.1,0.1,0.2
		c0,0.1-0.1,0.3-0.2,0.3c-0.1,0-0.2-0.1-0.2-0.3c0-0.1,0-0.1,0.1-0.2l0,0h-0.3c-0.1,0-0.2-0.1-0.2-0.1c-0.1-0.1-0.1-0.2-0.1-0.3
		C20.4,24.4,20.5,24.4,20.6,24.4z M21.2,23.2l0.3,0.4c0,0,0,0.1,0.1,0.1c0,0,0.1,0,0.1,0.1h-0.3c-0.1,0-0.1,0-0.2-0.1
		c-0.1,0-0.1-0.1-0.1-0.1l-0.3-0.3c0,0,0-0.1-0.1-0.1c0,0-0.1,0-0.1-0.1H21c0.1,0,0.1,0,0.1,0C21.2,23.1,21.2,23.1,21.2,23.2z
		 M22.4,23.6C22.4,23.7,22.4,23.7,22.4,23.6c0.1,0.1,0.1,0.1,0.2,0.2h-0.3c-0.1,0-0.1,0-0.2-0.1c-0.1,0-0.1-0.1-0.1-0.1l-0.3-0.5
		c0,0,0-0.1-0.1-0.1c-0.1-0.1-0.1-0.1-0.2-0.1h0.3c0.1,0,0.1,0,0.2,0.1c0.1,0,0.1,0.1,0.1,0.1L22.4,23.6z M23.3,23.7h-0.3
		c-0.1,0-0.1,0-0.2-0.1c-0.1,0-0.1-0.1-0.1-0.1l-0.3-0.3c0,0,0-0.1-0.1-0.1c0,0-0.1,0-0.1-0.1h0.3c0.1,0,0.1,0,0.1,0
		c0,0,0.1,0,0.1,0.1l0.3,0.4c0,0,0,0.1,0.1,0.1C23.2,23.7,23.3,23.7,23.3,23.7z M23.6,24.3c0,0.1,0,0.2-0.1,0.3
		c-0.1,0.1-0.1,0.1-0.2,0.1h-0.3c0.1,0.1,0.1,0.1,0.1,0.2c0,0.1-0.1,0.3-0.2,0.3c-0.1,0-0.2-0.1-0.2-0.3c0-0.1,0-0.1,0.1-0.2l0,0
		h-0.3c-0.1,0-0.1,0-0.2,0.1v-0.1c0,0,0-0.1,0-0.1c0-0.1,0.1-0.2,0.2-0.2h0.9C23.4,24.4,23.5,24.4,23.6,24.3z M24.3,24.9
		c0,0.6-0.3,1.2-0.9,1.3c0,0.4-0.2,0.6-0.5,0.7c0,0.3,0,0.6,0,0.9v0c0.1,0.2,0.1,0.4,0.1,0.5c0,0.3-0.3,0.6-0.6,0.5
		c-0.1,0-0.2,0-0.3,0c-0.4,0-0.5,0.1-0.8-0.1C21,28.5,21,28.4,21,28.3c0-0.2,0-0.4,0.1-0.6c-0.1-0.3-0.1-0.6,0-0.9
		c-0.3-0.1-0.5-0.3-0.5-0.7c-0.6-0.1-1-0.7-0.9-1.3c0-0.2,0.1-0.4,0.3-0.5V25c0,0.5,0.3,0.9,0.8,0.9h0.1c-0.1,0.9,1.1,1,1.1,0.2
		c-0.2-0.1-0.3-0.2-0.3-0.4h0.8c0,0.2-0.1,0.3-0.3,0.4c-0.1,0.7,1.1,0.7,1.1-0.2h0.1c0.5,0,0.8-0.4,0.8-0.9v-0.5
		C24.2,24.5,24.3,24.7,24.3,24.9z M24.5,27c0,0.1,0,0.1-0.1,0.2c0,0.1,0,0.1,0,0.2c0-0.1,0-0.1-0.1-0.2c0-0.1,0-0.1-0.1-0.2
		c0,0,0-0.1-0.1-0.1L24,26.7c-0.1-0.1-0.1-0.1-0.1-0.3c0-0.1,0-0.2,0.1-0.3c0-0.1,0.1-0.1,0.1-0.2c0,0.1,0,0.1,0,0.1
		c0,0.1,0,0.1,0.1,0.2l0.3,0.4C24.5,26.8,24.5,26.9,24.5,27z M37.7,30.5h-1c-0.4,0-0.5-0.1-0.8-0.4c-0.1-0.1-0.1-0.2-0.2-0.3
		c0.2,0.2,0.5,0.3,0.7,0.3c0.2,0,0.5,0,0.7,0c0.2,0,0.3,0.1,0.4,0.2C37.7,30.4,37.7,30.4,37.7,30.5z M22.7,28.3
		C22.8,28,22.1,28,22,28c-0.1,0-0.2,0-0.3,0c-0.1,0-0.4,0.1-0.4,0.3c0.1,0.2,0.2,0.2,0.4,0.2c0.1,0,0.2,0,0.3,0s0.2,0,0.3,0
		C22.4,28.5,22.6,28.5,22.7,28.3z M22.5,27.8c0-0.3,0.1-0.5,0.1-0.8v-0.1l-0.3,0.3c0,0,0-0.1-0.1-0.1c0-0.1-0.1-0.2-0.1-0.2
		c-0.1,0-0.1,0-0.2,0c-0.1,0-0.1,0-0.2,0h0c-0.1,0-0.2,0.3-0.2,0.3l-0.3-0.3c0,0.3,0,0.6,0.1,0.9c0.2,0,0.4,0,0.6,0
		C22.2,27.7,22.3,27.7,22.5,27.8z M34.9,23.9c0,0,0-0.1,0-0.1s0-0.1,0-0.1c-0.7,0.2-1.1,0.3-1.8,0.5c-0.8,0.2-1.2,0.4-1.9,0.6
		c-0.7,0.2-1.1,0.4-1.9,0.5c-0.4,0.1-0.6,0.1-1,0.1c-0.4,0-0.6,0-0.8-0.1c-0.2-0.1-0.4-0.3-0.5-0.5c0-0.1,0-0.2,0-0.3
		c0.1-0.1,0.1-0.1,0.3-0.1c0.1,0,0.3,0.1,0.3,0.2c0,0.1,0,0.2-0.1,0.3c0.1,0,0.2,0,0.3,0c0.2,0,0.3,0,0.5-0.1
		c0.1-0.1,0.2-0.2,0.2-0.4c0-0.2-0.1-0.3-0.2-0.4c-0.1-0.1-0.2-0.1-0.3-0.1c0.2-0.1,0.3-0.1,0.5,0c0.1,0,0.1,0.1,0.2,0.2
		c0.1,0.1,0.1,0.3,0.1,0.5c0.4,0,0.6,0,0.9-0.1c0.4-0.1,0.6-0.3,0.9-0.6c0.3-0.3,0.5-0.5,0.7-0.9c-0.3,0.2-0.5,0.2-0.8,0.3
		c-0.9,0.2-1.5-0.1-2.2-0.2c-0.4,0-0.9,0.1-1.3,0.2c-0.5,0.2-0.8,0.4-1,0.8c-0.2,0.4-0.2,0.7,0,1.2c0.1,0.4,0.4,0.6,0.7,0.8
		c0.5,0.3,0.8,0.3,1.3,0.3c0.8,0.1,1.2-0.1,1.9-0.2c0.7-0.1,1-0.3,1.7-0.5c0.7-0.2,1.1-0.3,1.9-0.5c0.3-0.3,0.4-0.4,0.7-0.7
		C34.5,24.2,34.6,24.1,34.9,23.9z M26.4,19.4c0.2-0.1,0.3-0.1,0.5-0.1c-0.2,0.1-0.2,0.1-0.4,0.2c-0.2,0.2-0.3,0.3-0.3,0.5
		c-0.1,0-0.1,0.1-0.2,0.1c-0.1,0.1-0.1,0.2-0.2,0.3c0,0.2,0,0.3,0.1,0.5c0.1-0.1,0.2-0.2,0.4-0.3c0.1-0.1,0.2-0.1,0.4-0.2
		c0-0.2,0.1-0.3,0.2-0.5c0.2-0.2,0.4-0.3,0.6-0.4c-0.2,0.1-0.3,0.1-0.4,0.3c-0.2,0.2-0.2,0.4-0.3,0.7c0,0.2,0,0.3,0.1,0.5
		c0.1-0.1,0.2-0.2,0.3-0.3c0.1-0.1,0.2-0.1,0.3-0.1c0.1,0,0.2,0,0.3,0c0.1,0,0.2,0,0.3,0c0.2,0,0.4,0,0.5-0.2
		c0.2-0.1,0.2-0.3,0.2-0.5c0-0.1,0-0.1,0-0.2c0-0.1,0-0.1-0.1-0.2c0.1,0,0.2,0,0.2,0.1c0.1,0.1,0.1,0.2,0.1,0.3c0,0.1,0,0.2-0.1,0.3
		c0.2,0,0.4,0,0.6-0.1c0.2-0.1,0.3-0.2,0.4-0.4c0.1-0.1,0.1-0.2,0.1-0.3c0.2-0.1,0.3-0.2,0.4-0.3c0.1-0.1,0.2-0.2,0.3-0.3l0.1,0.4
		c0,0.1,0,0.1,0,0.3c0,0.1,0,0.1,0,0.2l0.4-0.4c0.1-0.1,0.1-0.1,0.1-0.3c0-0.1,0-0.1,0-0.2l-0.2-0.7c0-0.1,0-0.2,0-0.3
		c0-0.1,0-0.1,0.1-0.2l0.2-0.2c0,0.1,0,0.1,0,0.1c0,0.1,0,0.1,0,0.2l0.2,0.6c0,0.1,0,0.1,0,0.2s0,0.1,0,0.2l0.4-0.4
		c0.1-0.1,0.1-0.1,0.1-0.2c0-0.1,0-0.1,0-0.2l-0.2-0.7c0-0.1,0-0.2,0-0.3c0-0.1,0-0.1,0.1-0.2l0.2-0.2c0,0.1,0,0.1,0,0.1
		c0,0.1,0,0.1,0,0.2l0.2,0.6c0,0.1,0,0.1,0,0.2c0,0.1,0,0.1,0,0.2l0.3-0.4c0.1-0.1,0.1-0.1,0.1-0.2c0-0.1,0-0.1,0-0.2l0-0.2
		c0,0,0-0.2,0-0.3c0-0.2,0.1-0.2,0.2-0.3c0.2-0.2,0.3-0.3,0.5-0.5c0.3-0.2,0.4-0.4,0.7-0.6c0-0.2,0-0.3-0.1-0.5
		c-0.1-0.1-0.1-0.2-0.2-0.3c-0.1-0.1-0.1-0.1-0.2-0.1c-0.1,0-0.1,0-0.2-0.1c-0.3-0.1-0.4-0.1-0.7,0c-0.1,0-0.2,0-0.3,0.1
		c0,0-0.2,0.1-0.2,0.1c0,0.1,0,0.2,0,0.3c0,0.1-0.1,0.2-0.1,0.3c-0.1,0.1-0.2,0.1-0.4,0.2c-0.3,0.1-0.4,0-0.7,0.1s-0.5,0-0.7,0.2
		c-0.5,0.2-0.7,0.5-1,1c-0.2,0.4-0.3,0.7-0.5,1c-0.1,0.1-0.1,0.1-0.2,0.2c0.2,0,0.3,0,0.4-0.1c0.3,0,0.4,0,0.7,0
		c-0.1,0-0.2,0.1-0.3,0.1c-0.1,0-0.1,0.1-0.2,0.1c-0.1,0.3-0.2,0.4-0.4,0.6c-0.2,0.2-0.4,0.2-0.7,0.2c-0.2,0-0.4-0.1-0.6-0.1
		c-0.3-0.1-0.4-0.2-0.7-0.2c-0.2,0-0.3,0-0.5,0.1c-0.2,0.1-0.3,0.2-0.5,0.4c-0.1,0.2-0.2,0.4-0.2,0.6c-0.1,0-0.2,0.1-0.3,0.2
		c-0.1,0.1-0.2,0.2-0.2,0.4c0,0.1,0,0.2,0.1,0.3c0.1-0.1,0.2-0.2,0.3-0.3c0.1-0.1,0.2-0.1,0.4-0.2c0.1-0.2,0.1-0.3,0.2-0.4
		C26.2,19.5,26.3,19.5,26.4,19.4z M31.1,16.9c0.1-0.3,0.3-0.4,0.5-0.6c0.2-0.1,0.3-0.2,0.6-0.2c0.2,0,0.3,0,0.4-0.1
		c0.2-0.1,0.3-0.1,0.5-0.2c-0.1,0.2-0.2,0.3-0.4,0.4c-0.3,0.2-0.5,0.2-0.8,0.4c-0.4,0.3-0.6,0.6-0.8,1C31,17.3,31,17.1,31.1,16.9z
		 M40.9,18.7c0-0.1,0-0.2,0-0.4c0-0.1,0-0.2-0.1-0.3c-0.1-0.1-0.2-0.2-0.3-0.2c-0.1,0-0.4-0.1-0.5-0.1h-0.1c-0.1,0-0.1,0-0.2,0
		c-0.1,0-0.2,0-0.3-0.1l-0.2-0.2c0.1,0,0.1,0,0.1,0c0,0,0.1,0,0.1,0H40c0.1,0,0.2,0,0.3,0c0.1,0,0.1,0,0.2,0.1l-0.4-0.5
		c-0.1-0.1-0.1-0.1-0.2-0.2c-0.1-0.1-0.1-0.1-0.2-0.1H39c-0.1,0-0.1,0-0.2,0c-0.1,0-0.1-0.1-0.1-0.1l-0.1-0.2c0.1,0,0.1,0,0.1,0
		c0,0,0.1,0,0.1,0h0.6c0.1,0,0.2,0,0.3,0c0.1,0,0.1,0,0.2,0.1L39.5,16c-0.1-0.1-0.1-0.1-0.2-0.2c-0.1,0-0.1-0.1-0.2-0.1h-0.7
		c-0.1,0-0.1,0-0.2,0c-0.1,0-0.1-0.1-0.1-0.1l-0.1-0.2c0,0,0.1,0,0.1,0c0,0,0.1,0,0.1,0h0.6c0.1,0,0.2,0,0.3,0c0.1,0,0.1,0,0.2,0.1
		l-0.4-0.5c-0.1-0.1-0.1-0.1-0.2-0.1c-0.1-0.1-0.1-0.1-0.2-0.1h-0.7c-0.1,0-0.1,0-0.2,0c0,0-0.1,0-0.1-0.1c0,0-0.1-0.1-0.2-0.3
		c-0.1-0.2-0.3-0.6-0.3-0.6c0.3,0,0.4,0,0.7-0.1c0.4-0.1,0.7-0.3,1-0.6c0.2-0.3,0.2-0.5,0.2-0.9c0-0.4-0.1-0.6-0.3-0.9
		c-0.2-0.3-0.4-0.4-0.6-0.5c-0.3-0.2-0.5-0.2-0.8-0.3c-0.3-0.1-0.5-0.1-0.7-0.3c-0.1-0.2-0.1-0.3,0-0.5c0.1-0.1,0.1-0.2,0.3-0.3
		c-0.3-0.1-0.6-0.1-1,0c-0.2,0.1-0.4,0.2-0.5,0.4c-0.1,0.3-0.2,0.5-0.1,0.7c-0.3,0.2-0.5,0.3-0.8,0.5c-0.4,0.3-0.6,0.5-1,0.9
		c0.3-0.1,0.5-0.1,0.8-0.2c0.3,0,0.5,0,0.8-0.1c0-0.2,0-0.3,0.1-0.4c0.1-0.3,0.4-0.4,0.7-0.4c-0.1,0.1-0.2,0.1-0.3,0.2
		c-0.1,0.2-0.2,0.3-0.1,0.5c0.1,0.2,0.2,0.3,0.3,0.3c0.1,0,0.2,0,0.2-0.1c0-0.1,0-0.2,0-0.3c0.1-0.3,0.3-0.5,0.6-0.4
		c-0.1,0-0.1,0.1-0.2,0.2c-0.2,0.2-0.2,0.5,0,0.8c0.1,0.2,0.3,0.3,0.6,0.2c0-0.1-0.1-0.2-0.1-0.3c0-0.2,0.3-0.5,0.5-0.5
		c0.2,0,0.5,0.2,0.5,0.4c0,0.5-0.3,0.6-0.6,0.7c-0.2,0-0.5-0.1-0.7-0.1c-0.3-0.1-0.5-0.1-0.8-0.2c-0.7-0.1-1.1-0.2-1.8-0.2
		c-0.5,0-1,0.1-1.5,0.2c-0.9,0.2-1.1,0.3-2,0.5c-1,0.2-1.6,0.4-2.5,0.4c-1,0-1.6-0.1-2.6-0.4c0.1,0.2,0.1,0.3,0.2,0.5
		c0,0.1,0,0.2,0,0.3c-0.1-0.3-0.2-0.4-0.3-0.6c-0.2-0.3-0.4-0.4-0.6-0.7c0-0.1-0.1-0.1-0.1-0.2c0-0.1,0-0.1,0-0.2
		c0-0.1,0-0.1,0.1-0.2c0,0.1,0,0.1,0,0.2c0,0,0,0.1,0.1,0.1l0.6,0.6c0.1-0.4,0.1-0.7-0.1-1.1c-0.1-0.3-0.2-0.5-0.3-0.8
		c0.1-0.3,0.1-0.5,0.1-0.8c0-0.2,0-0.4-0.1-0.6c0,0.2-0.1,0.3-0.2,0.4c-0.1,0.1-0.1,0.1-0.2,0.1c-0.1,0.1-0.1,0.1-0.2,0.2
		c0,0.1,0,0.1,0,0.2c0,0.1,0,0.2,0.1,0.3c-0.1-0.1-0.2-0.2-0.3-0.3C24,10.6,24,10.6,24,10.4c0-0.1,0-0.2,0-0.3
		c0-0.1,0.1-0.1,0.2-0.2c0.1-0.1,0.2,0,0.3-0.1c0.1,0,0.2-0.1,0.2-0.1c0.1-0.1,0.2-0.2,0.2-0.4c-0.2-0.1-0.3-0.1-0.6,0
		c-0.1,0-0.2,0-0.3,0.1c-0.2-0.2-0.3-0.3-0.5-0.3c-0.1,0-0.2-0.1-0.4-0.1c-0.2-0.2-0.3-0.2-0.5-0.3c-0.2-0.1-0.3,0-0.6,0
		s-0.4,0-0.6,0c-0.2,0.1-0.4,0.1-0.5,0.3c-0.1,0-0.2,0-0.4,0.1c-0.2,0.1-0.4,0.2-0.5,0.3c-0.1,0-0.2,0-0.3-0.1c-0.2,0-0.3,0-0.6,0.1
		c0,0.1,0.1,0.2,0.2,0.4c0.1,0.1,0.1,0.1,0.3,0.1c0.1,0,0.2,0,0.3,0.1c0.1,0,0.1,0.1,0.2,0.2c0.1,0.1,0.1,0.2,0,0.3
		c0,0.1-0.1,0.2-0.1,0.3c-0.1,0.1-0.2,0.2-0.3,0.3c0.1-0.1,0.1-0.2,0.1-0.3c0-0.1,0-0.1,0-0.2c0-0.1-0.1-0.2-0.2-0.2
		c-0.1,0-0.1-0.1-0.2-0.1C19,10,19,9.9,19,9.7c-0.1,0.2-0.1,0.4-0.1,0.6c0,0.3,0,0.5,0.1,0.8c-0.2,0.3-0.3,0.4-0.3,0.8
		c-0.1,0.4-0.1,0.7-0.1,1.1l0.6-0.6c0,0,0,0,0.1-0.1c0-0.1,0-0.1,0-0.2c0,0.1,0.1,0.1,0.1,0.2c0,0.1,0,0.1,0,0.2
		c0,0.1-0.1,0.1-0.1,0.2c-0.2,0.3-0.4,0.4-0.6,0.7c-0.1,0.2-0.2,0.4-0.3,0.6c0-0.1,0-0.1-0.1-0.2c0-0.1,0-0.1,0-0.2
		c-0.3-0.2-0.5-0.3-0.8-0.6c-0.3-0.2-0.5-0.3-0.7-0.6c-0.3-0.3-0.6-0.5-0.6-1c0-0.2,0.2-0.3,0.2-0.5c0.1-0.3,0.2-0.4,0.2-0.7
		c0-0.3-0.1-0.5-0.3-0.7c0-0.2,0-0.3-0.1-0.4c-0.1-0.2-0.3-0.3-0.5-0.4c0.1,0.1,0.1,0.2,0.1,0.4c0,0.1,0,0.2-0.1,0.3
		c0.1,0.1,0.1,0.2,0.1,0.3c0,0.2-0.1,0.3-0.2,0.4c0-0.2,0-0.4-0.1-0.6c-0.1-0.2-0.2-0.3-0.4-0.4c-0.1-0.3-0.3-0.5-0.6-0.5
		c-0.2,0-0.3,0-0.4,0.2c0.2,0,0.2,0.1,0.3,0.2c0,0.1,0.1,0.1,0.1,0.2c-0.1,0-0.1,0.1-0.1,0.1c-0.1,0.1-0.1,0.1-0.1,0.2
		c0.2,0,0.4,0.1,0.5,0.3c0.1,0.2,0.2,0.3,0.2,0.6c0-0.1-0.1-0.2-0.2-0.3c-0.2-0.3-0.5-0.3-0.8-0.3c-0.1-0.1-0.3-0.2-0.5-0.2
		c-0.2,0-0.3,0.1-0.4,0.3c0.1,0,0.2,0,0.3,0.1c0.1,0.1,0.1,0.1,0.2,0.2c-0.1,0.1-0.1,0.1-0.1,0.2c-0.1,0.2-0.1,0.3-0.1,0.5
		c0,0.2,0,0.3,0.2,0.5c0.1,0.2,0.3,0.3,0.5,0.3c0.1,0,0.1,0,0.2,0c0.1,0,0.1-0.1,0.2-0.1c0.2,0,0.3,0.3,0,0.4c-0.1,0-0.1,0-0.2,0
		c-0.1,0-0.1-0.1-0.2-0.1c-0.1,0-0.2,0.1-0.3,0.2c-0.1,0.1-0.1,0.2-0.1,0.3c-0.1,0-0.1,0-0.2,0c-0.1,0-0.1,0-0.2-0.1
		c0,0.2,0,0.3,0.1,0.4c0.1,0.1,0.2,0.2,0.4,0.2c0.1,0.2,0.2,0.4,0.5,0.5c0.1,0.1,0.2,0.1,0.3,0.1c0.2,0,0.2-0.1,0.4-0.2
		c0.1,0,0.1-0.1,0.2-0.1c0.1,0,0.2,0,0.3,0.1c0.1,0.1,0.2,0.2,0.2,0.4c0,0.2-0.1,0.3-0.3,0.4c-0.1,0.1-0.2,0.1-0.4,0l0.3,0.3
		c0.1,0.1,0.1,0.1,0.2,0.2c0.1,0,0.2,0.1,0.3,0.1h0.8c0.1,0,0.2,0,0.3,0c0.1,0,0.2,0,0.3,0.1l0.2,0.2c-0.1,0-0.1,0-0.2,0
		c0,0-0.1,0-0.1,0h-0.8c-0.1,0-0.2,0-0.3,0c-0.1,0-0.1,0-0.2-0.1L16,15c0.1,0.1,0.1,0.1,0.2,0.2c0.1,0,0.2,0.1,0.3,0.1h0.8
		c0.1,0,0.2,0,0.3,0c0.1,0,0.2,0,0.3,0.1l0.2,0.2c-0.1,0-0.1,0-0.2,0c-0.1,0-0.1,0-0.1,0h-0.8c-0.1,0-0.2,0-0.3,0
		c-0.1,0-0.1,0-0.2-0.1l0.4,0.4c0.1,0.1,0.1,0.1,0.2,0.2c0.1,0,0.2,0.1,0.3,0.1H18c0.1,0,0.2,0,0.3,0c0.1,0,0.2,0,0.3,0.1l0.2,0.2
		c-0.1,0-0.1,0-0.2,0c0,0-0.1,0-0.1,0h-0.8c-0.1,0-0.2,0-0.3,0c-0.1,0-0.1,0-0.2-0.1l0.4,0.4c0.1,0.1,0.1,0.1,0.2,0.1
		c0.1,0,0.2,0.1,0.3,0.1h1.4c-0.1-0.1-0.2-0.2-0.3-0.4c-0.1-0.1-0.1-0.2-0.1-0.3c0-0.1,0-0.2,0-0.3c-0.1,0-0.1-0.1-0.1-0.1
		c-0.1-0.1-0.1-0.1-0.2-0.3c-0.1-0.2-0.1-0.3-0.1-0.5c0-0.1,0-0.2,0-0.3c0-0.1,0.1-0.2,0.1-0.3c0.1-0.1,0.1-0.1,0.2-0.2
		c0,0,0.1-0.1,0.1-0.1c0-0.1,0.1-0.1,0.1-0.2l0.1,0.3c0,0,0,0.1,0,0.1c0,0.1,0,0.1-0.1,0.1c-0.1,0.1-0.1,0.1-0.1,0.2
		c-0.1,0.1-0.1,0.2-0.1,0.3c0,0.1,0,0.2,0,0.3c0,0.1,0,0.1,0.1,0.2s0.1,0.1,0.1,0.1l0.1-0.2l0.1-0.2c0,0,0-0.1,0-0.1
		c0-0.1,0-0.1,0-0.1l0.2,0.2c0,0.1,0,0.1,0,0.2c0,0.1,0,0.1,0,0.2l-0.2,0.3c0,0.1,0,0.1-0.1,0.2c0,0.1,0,0.1,0,0.2
		c0,0.1,0.1,0.1,0.1,0.2s0.1,0.1,0.2,0.2c0-0.2,0.1-0.3,0.1-0.4c0-0.1,0.1-0.2,0.1-0.3c0,0,0-0.1,0-0.1c0-0.1,0-0.1,0-0.2l0.2,0.3
		c0,0.1,0,0.1,0,0.2c0,0.1,0,0.1,0,0.1l-0.1,0.4c0,0.1,0,0.1,0,0.2c0,0.1,0.1,0.2,0.2,0.3c0.1,0.1,0.1,0.1,0.2,0.1l0.1-0.4
		c0-0.1,0-0.1,0-0.2c0-0.1,0-0.1,0-0.2l0.2,0.2c0.1,0.1,0,0.1,0.1,0.2c0,0.1,0,0.1,0,0.2l-0.1,0.3c0,0.1,0,0.2,0,0.3
		c0,0.1,0,0.2,0.1,0.3c-0.1,0-0.1-0.1-0.2-0.1c-0.1-0.1-0.1-0.1-0.1-0.2c0-0.1,0-0.1-0.1-0.2c-0.1,0-0.1-0.1-0.2-0.1
		c-0.1-0.1-0.2-0.1-0.3-0.3h-1.3c-0.7,0.4-0.5,0.4-0.9,0.6c-0.6,0.3-0.9,0.7-1.5,0.7c-0.3,0-0.4-0.1-0.6-0.2c-0.2,0-0.2-0.1-0.4-0.1
		c-0.2,0-0.4,0-0.5,0.1c-0.2,0.1-0.2,0.2-0.3,0.4c0.2-0.1,0.3-0.1,0.5-0.1c0.2,0,0.3,0.1,0.4,0.2c-0.1,0-0.2,0-0.4,0
		c-0.3,0-0.5,0-0.7,0.2s-0.4,0.3-0.4,0.6c0,0.2,0,0.3,0,0.4c-0.1,0.1-0.1,0.1-0.2,0.2c-0.1,0.1-0.2,0.2-0.2,0.3s0,0.3,0.2,0.4
		c0.1-0.2,0.1-0.3,0.3-0.3c0.1-0.1,0.2-0.1,0.3-0.1c0,0,0.1,0.1,0.1,0.1c0.1,0,0.1,0,0.2,0.1l0.1-0.2c0-0.3,0-0.5,0.2-0.7
		c0.2-0.3,0.4-0.4,0.8-0.3c-0.3,0.1-0.5,0.2-0.6,0.5c-0.1,0.2-0.1,0.3-0.1,0.5c-0.1,0.1-0.2,0.1-0.3,0.3c-0.1,0.2-0.1,0.4,0,0.6
		c0.1-0.1,0.2-0.2,0.3-0.3c0.2-0.1,0.3-0.2,0.5-0.2c0.1,0,0.2,0,0.3,0.1c0.2,0,0.2,0,0.4,0c-0.1-0.1-0.1-0.2-0.1-0.3
		c0-0.3,0.1-0.6,0.4-0.7c0.1,0,0.2-0.1,0.3,0c-0.1,0-0.2,0.1-0.3,0.2c-0.1,0.1-0.2,0.3-0.2,0.5c0,0.2,0.1,0.3,0.2,0.4
		c0.1,0.1,0.2,0.1,0.3,0.1c0,0.1,0,0.1,0,0.2c0,0.1,0,0.1-0.1,0.2c0.2,0,0.3-0.1,0.5-0.2c0.1-0.1,0.2-0.2,0.2-0.3
		c0.1,0,0.2-0.1,0.3-0.1c0.2-0.1,0.3-0.3,0.3-0.6c0-0.1-0.1-0.2-0.2-0.3c0-0.2,0.1-0.4,0.3-0.4c0.2,0,0.4,0.2,0.3,0.4
		c0,0.1,0,0.1-0.1,0.2c0.1,0,0.1,0,0.2-0.1c0.1-0.1,0.1-0.1,0.2-0.2l0.4-0.5c0,0,0-0.1,0.1-0.1c0.1-0.2,0.2-0.3,0.4-0.3h0.2
		c-0.1,0-0.1,0.1-0.1,0.1c0,0-0.1,0.1-0.1,0.1l-0.4,0.6c-0.1,0.1-0.1,0.2-0.2,0.2c-0.1,0.1-0.1,0.1-0.2,0.1l0.5,0
		c0.1,0,0.2,0,0.2-0.1c0.1,0,0.1-0.1,0.2-0.2l0.5-0.7c0.1-0.1,0.1-0.1,0.2-0.2c0.1,0,0.1-0.1,0.2-0.1h0.3c-0.1,0-0.1,0.1-0.1,0.1
		c0,0-0.1,0.1-0.1,0.1L20,19.5c-0.1,0.1-0.1,0.2-0.2,0.2c-0.1,0.1-0.1,0.1-0.2,0.1l0.5,0c0.1,0,0.2,0,0.2-0.1c0.1,0,0.2-0.1,0.2-0.2
		l0.7-1c-0.1-0.1-0.2-0.2-0.2-0.3c0-0.1,0-0.2,0-0.3c0-0.1,0-0.2,0-0.3c0-0.1,0.1-0.1,0.1-0.2c0-0.1,0-0.1,0-0.2c0-0.1,0-0.1,0-0.2
		l0.2,0.1c0,0,0.1,0.1,0.1,0.1c0,0.1,0,0.1,0,0.2c0,0.1,0,0.1,0,0.2c0,0.1-0.1,0.2-0.1,0.3s0,0.2,0,0.3c0,0.1,0.1,0.2,0.2,0.3
		c0.1,0.1,0.2,0.2,0.4,0.3v-1.2h0.3v1.2c0,0.1,0,0.1,0.1,0.2c0,0.1,0.1,0.1,0.1,0.1l0.4,0.2c0.1,0.1,0.2,0.1,0.3,0.1
		c0.1,0,0.2,0,0.3-0.1l0.3-0.1c-0.1,0-0.1,0-0.2,0c-0.1,0-0.1-0.1-0.2-0.1l-0.8-0.4c0.1-0.1,0.1-0.2,0.2-0.3c0-0.1,0-0.2,0-0.3
		s0-0.2-0.1-0.3c0-0.1,0-0.1,0-0.2c0-0.1,0-0.1,0-0.2c0-0.1,0-0.1,0.1-0.1l0.2-0.1c0,0.1,0,0.1,0,0.2c0,0.1,0,0.1,0,0.2
		c0,0.1,0.1,0.1,0.1,0.2c0,0.1,0,0.2,0,0.3c0,0.2,0,0.3-0.1,0.5l0.8,0.5c0.1,0,0.1,0.1,0.2,0.1c0.1,0,0.1,0,0.2,0l0.4-0.2
		c-0.1,0-0.1,0-0.2,0c-0.1,0-0.1-0.1-0.2-0.1l-0.8-0.4c0,0,0,0-0.1,0c0.1-0.2,0.1-0.3,0.1-0.4c0-0.1,0-0.2,0-0.3l-0.1-0.4
		c0-0.1,0-0.1,0-0.2c0-0.1,0-0.1,0.1-0.2l0.2-0.2c0,0.1,0,0.1,0,0.2c0,0.1,0,0.1,0,0.2c0,0.1,0.1,0.2,0.1,0.3c0,0.1,0,0.2,0.1,0.3
		c0,0.1,0,0.2,0,0.3c0,0.1-0.1,0.3-0.1,0.3l1,0.5c0.1,0,0.1,0.1,0.2,0.1c0.1,0,0.1,0,0.2,0l0.4-0.2c-0.1,0-0.1,0-0.2,0
		c-0.1,0-0.1-0.1-0.2-0.1l-0.8-0.4c0,0-0.1,0-0.1-0.1c-0.1,0-0.1,0-0.1-0.1c0-0.1,0-0.1,0.1-0.2c0-0.1,0-0.1,0.1-0.2
		c0-0.2,0-0.4,0-0.6c0-0.2-0.1-0.3-0.2-0.5c0-0.1,0-0.1,0-0.2c0-0.1,0-0.1,0-0.2l0.2-0.3c0,0.1,0,0.1,0,0.2c0,0,0,0.1,0,0.1
		c0,0.1,0.1,0.1,0.1,0.3c0.1,0.2,0.1,0.3,0.1,0.4c0.1-0.1,0.1-0.1,0.2-0.2c0.1-0.1,0.1-0.1,0.1-0.2c0-0.1,0-0.1,0-0.2
		c0-0.1,0-0.1-0.1-0.2l-0.2-0.3c0,0,0-0.1,0-0.1c0-0.1,0-0.1,0-0.2l0.2-0.2c0,0.1,0,0.1,0,0.1c0,0,0,0.1,0,0.1l0.1,0.2l0.1,0.2
		c0.1,0,0.1-0.1,0.1-0.1c0-0.1,0.1-0.1,0.1-0.2c0-0.1,0.1-0.2,0-0.3c0-0.1,0-0.2-0.1-0.3c0-0.1-0.1-0.1-0.1-0.2c0,0-0.1-0.1-0.1-0.1
		c0,0,0-0.1,0-0.1l0.1-0.3c0,0.1,0,0.1,0.1,0.2c0,0,0.1,0.1,0.1,0.1c0.1,0.1,0.1,0.1,0.2,0.2c0.1,0.1,0.1,0.1,0.1,0.3
		c0,0.1,0,0.2,0,0.3c0,0.2,0,0.3-0.1,0.5c-0.1,0.1-0.1,0.2-0.2,0.3c0,0-0.1,0.1-0.1,0.1c0,0.1,0,0.2,0,0.3c0,0.1-0.1,0.2-0.1,0.3
		c-0.1,0.2-0.3,0.4-0.4,0.5c0,0,0,0.2,0,0.3c0,0.1,0,0.2-0.1,0.4l1.1,0.6c0.1,0,0.1,0.1,0.2,0.1c0.1,0,0.1,0,0.2,0l0.4-0.2
		c-0.1,0-0.1,0-0.2,0c-0.1,0-0.1-0.1-0.2-0.1L25,17.4c0,0-0.1,0-0.1-0.1c-0.1,0-0.1,0-0.1-0.1c0.1,0,0.2,0,0.3-0.1
		c0.1,0,0.2,0,0.3,0c0.1,0,0.1,0,0.2,0.1l0.6,0.3c0.1,0,0.1,0.1,0.2,0.1c0.1,0,0.2,0,0.2,0l0.5-0.2c-0.1,0-0.1,0-0.2,0
		c-0.1,0-0.1-0.1-0.1-0.2c-0.1-0.2,0.1-0.4,0.3-0.5c0.7-0.4,1.1-0.5,1.8-0.8c1-0.5,1.6-0.9,2.6-1.3c0.6-0.2,0.9-0.5,1.5-0.5
		c0.4,0,0.6,0,1,0.2c0.2,0.1,0.2,0.2,0.4,0.3c0.1,0.2,0.1,0.3,0.2,0.5c0,0.2,0,0.3,0,0.5c0,0.5,0,1,0.4,1.5c0.2,0.2,0.3,0.3,0.6,0.5
		c0.2,0.1,0.3,0.2,0.6,0.3c0.1,0.1,0.2,0.2,0.3,0.3c0,0.1,0,0.2,0,0.3c0.2,0,0.3,0,0.4-0.1c0.2-0.1,0.4-0.2,0.5-0.4H38
		c0.1,0.1,0.1,0.2,0.1,0.3c0,0.2,0,0.3-0.1,0.4c-0.1,0.1-0.2,0.1-0.3,0.1c-0.3,0-0.4-0.1-0.7,0c-0.2,0-0.3,0-0.5,0.1
		c-0.2,0.1-0.4,0.3-0.4,0.5c-0.1,0.2-0.1,0.3-0.1,0.5c-0.1,0.1-0.1,0.1-0.2,0.2c-0.1,0.2-0.1,0.4,0,0.6c0.1-0.1,0.2-0.2,0.3-0.3
		c0.1-0.1,0.2-0.1,0.4-0.1c0-0.4,0.2-0.6,0.5-0.8c0.2-0.1,0.3-0.1,0.4-0.1c-0.2,0.1-0.3,0.2-0.4,0.4c-0.2,0.3-0.3,0.5-0.3,0.8
		c-0.1,0.1-0.1,0.2-0.1,0.3c0,0.1,0,0.2,0.1,0.3c0.2-0.2,0.3-0.3,0.5-0.4c0.1,0,0.2-0.1,0.3-0.1c0.1,0,0.2,0,0.3,0
		c0.1,0,0.2,0,0.2,0c-0.1-0.3-0.1-0.5,0-0.8c0.2-0.2,0.4-0.3,0.7-0.3c-0.2,0.1-0.3,0.1-0.4,0.3c-0.1,0.1-0.1,0.3-0.1,0.4
		c0,0.2,0.1,0.3,0.3,0.4c0,0.1,0,0.2,0,0.3c0,0.1,0.1,0.1,0.2,0.2c0-0.1,0.1-0.2,0.2-0.3c0.1-0.1,0.1-0.1,0.2-0.1
		c0.1-0.1,0.2,0,0.4-0.1c0.3,0,0.4,0,0.6-0.2c0.1-0.1,0.2-0.2,0.2-0.4c0-0.3,0-0.4-0.2-0.6c0.1-0.2,0.1-0.3,0.1-0.5
		c0-0.2,0-0.3-0.1-0.5h0.4c0.1,0,0.1,0,0.2,0C40.7,18.5,40.8,18.6,40.9,18.7z M23.8,14.4c0-0.1-0.1-0.1-0.1-0.3c0-0.1,0-0.1,0-0.2
		c0-0.1,0.1-0.1,0.1-0.2c0,0.1,0,0.1,0,0.2c0,0.1,0.1,0.1,0.1,0.2c0,0.1,0.1,0.1,0.1,0.2c0.1,0.1,0.1,0.2,0.1,0.3
		c0,0.1,0,0.2-0.1,0.3c0,0.1-0.1,0.1-0.1,0.2c0-0.1,0-0.1,0-0.2c0-0.1-0.1-0.1-0.1-0.2C23.9,14.5,23.9,14.5,23.8,14.4z M20.1,15.3
		c0-0.1,0-0.1,0-0.2l0.1-0.2c0,0,0-0.1,0-0.1c0,0,0-0.1,0-0.1l0.2,0.2c0,0,0,0.1,0,0.1c0,0.1,0,0.1,0,0.1c0,0.1-0.1,0.1-0.1,0.2
		c0,0.1,0,0.1,0,0.1l0.2,0.2c0,0,0.1,0,0.1,0c0.1,0,0.1-0.1,0.1-0.1c0-0.1,0-0.1,0-0.2l0.1,0.2c0,0,0,0.1,0,0.1c0,0,0,0.1,0,0.1
		l-0.1,0.2c0,0,0,0.1,0,0.1c0,0,0,0.1,0.1,0.1c0,0,0.1,0.1,0.1,0.1c0,0,0.1,0,0.1,0c0,0,0,0,0.1-0.1l0-0.2c0,0,0,0,0-0.1
		c0,0,0-0.1-0.1-0.1l0.2,0.1c0,0,0.1,0.1,0.1,0.1c0,0.1,0,0.1,0,0.1l0,0.2c0,0.1,0,0.1,0,0.1c0,0.1,0.1,0.1,0.1,0.1
		c0.1,0,0.1,0.1,0.2,0.1v-0.7h0.3v0.7c0.1,0,0.1,0,0.2-0.1c0.1,0,0.1,0,0.1-0.1c0,0,0-0.1,0-0.1l0-0.2c0-0.1,0-0.1,0-0.1
		c0-0.1,0-0.1,0.1-0.1l0.2-0.1c0,0,0,0.1-0.1,0.1c0,0,0,0,0,0.1l0,0.2c0,0,0,0.1,0.1,0.1c0,0,0.1,0,0.1,0c0.1,0,0.1,0,0.1-0.1
		c0,0,0-0.1,0.1-0.1c0,0,0-0.1,0-0.1L23,15.8c0,0,0-0.1,0-0.1c0-0.1,0-0.1,0-0.1l0.1-0.2c0,0.1,0,0.1,0,0.2c0,0.1,0,0.1,0.1,0.1
		c0,0,0.1,0,0.1,0l0.2-0.2c0,0,0-0.1,0-0.1c0-0.1,0-0.1-0.1-0.2c0-0.1,0-0.1,0-0.1c0,0,0-0.1,0-0.1l0.2-0.2c0,0,0,0.1,0,0.1
		c0,0.1,0,0.1,0,0.1l0.1,0.2c0,0.1,0,0.1,0,0.2s0,0.1,0,0.2c0,0.1-0.1,0.1-0.1,0.2c-0.1,0.1-0.1,0.1-0.2,0.2
		c-0.1,0.1-0.1,0.1-0.2,0.2c0,0.1,0,0.1,0,0.2c0,0.1-0.1,0.1-0.1,0.2c-0.1,0.1-0.1,0.1-0.2,0.1c-0.1,0-0.1,0-0.2,0.1
		c0,0.1,0,0.1-0.1,0.2c0,0.1-0.1,0.1-0.1,0.1c-0.1,0.1-0.1,0.1-0.3,0.2c-0.1,0.1-0.2,0.1-0.3,0.1c-0.1,0-0.2,0-0.3-0.1
		c-0.1,0-0.2-0.1-0.3-0.2c0,0-0.1-0.1-0.1-0.1c0-0.1-0.1-0.1-0.1-0.2c-0.1,0-0.1,0-0.2-0.1c-0.1,0-0.1-0.1-0.2-0.1
		c-0.1-0.1-0.1-0.1-0.1-0.2c0-0.1,0-0.1,0-0.2c-0.1-0.1-0.2-0.1-0.2-0.2c-0.1-0.1-0.1-0.1-0.2-0.2c0-0.1-0.1-0.1-0.1-0.2
		C20.1,15.4,20.1,15.3,20.1,15.3z M19.6,14.6c0-0.1,0-0.2,0.1-0.3c0-0.1,0.1-0.1,0.1-0.2c0-0.1,0.1-0.1,0.1-0.2c0-0.1,0-0.1,0-0.2
		c0.1,0.1,0.1,0.1,0.1,0.2c0,0.1,0,0.1,0,0.2c0,0.1,0,0.2-0.1,0.3c0,0.1-0.1,0.1-0.1,0.2c0,0.1-0.1,0.1-0.1,0.2c0,0.1,0,0.1,0,0.2
		c-0.1-0.1-0.1-0.1-0.1-0.2C19.7,14.8,19.6,14.7,19.6,14.6z M19.8,12.9c0-0.1,0.1-0.1,0.1-0.2c0-0.1,0-0.1,0-0.1
		c0.1,0,0.1,0.1,0.1,0.2C20,12.9,20,13,20,13.1c0,0.1,0,0.2-0.1,0.2l-0.2,0.3c0,0,0,0.1-0.1,0.1c0,0.1-0.1,0.1-0.1,0.2
		c0,0.1,0,0.1-0.1,0.2c0-0.1,0-0.1,0-0.2c0-0.1,0-0.1-0.1-0.2c0-0.1,0-0.2,0.1-0.3L19.8,12.9z M20.6,11h0.9c0,0,0.1,0,0.1,0.1
		c0.1,0.1,0,0.1,0,0.2l0,0.1c0,0-0.1-0.1-0.1-0.1h-0.3c0.1,0.1,0.1,0.1,0.1,0.2c0,0.1-0.1,0.3-0.2,0.3c-0.1,0-0.2-0.1-0.2-0.3
		c0-0.1,0-0.1,0.1-0.2l0,0h-0.3c-0.1,0-0.2-0.1-0.2-0.1c-0.1-0.1-0.1-0.2-0.1-0.3C20.4,11,20.5,11,20.6,11z M21.2,9.8l0.3,0.4
		c0,0,0,0.1,0.1,0.1c0,0,0.1,0,0.1,0.1h-0.3c-0.1,0-0.1,0-0.2-0.1c-0.1,0-0.1-0.1-0.1-0.1l-0.3-0.3c0,0,0-0.1-0.1-0.1
		c0,0-0.1,0-0.1-0.1H21c0.1,0,0.1,0,0.1,0C21.2,9.7,21.2,9.8,21.2,9.8z M22.4,10.2C22.4,10.3,22.4,10.3,22.4,10.2
		c0.1,0.1,0.1,0.1,0.2,0.2h-0.3c-0.1,0-0.1,0-0.2-0.1c-0.1,0-0.1-0.1-0.1-0.1l-0.3-0.5c0,0,0-0.1-0.1-0.1c-0.1-0.1-0.1-0.1-0.2-0.1
		h0.3c0.1,0,0.1,0,0.2,0.1c0.1,0,0.1,0.1,0.1,0.1L22.4,10.2z M23.3,10.3h-0.3c-0.1,0-0.1,0-0.2-0.1c-0.1,0-0.1-0.1-0.1-0.1l-0.3-0.3
		c0,0,0-0.1-0.1-0.1c0,0-0.1,0-0.1-0.1h0.3c0.1,0,0.1,0,0.1,0c0,0,0.1,0,0.1,0.1l0.3,0.4c0,0,0,0.1,0.1,0.1
		C23.2,10.3,23.3,10.3,23.3,10.3z M23.6,10.9c0,0.1,0,0.2-0.1,0.3c-0.1,0.1-0.1,0.1-0.2,0.1h-0.3c0.1,0.1,0.1,0.1,0.1,0.2
		c0,0.1-0.1,0.3-0.2,0.3c-0.1,0-0.2-0.1-0.2-0.3c0-0.1,0-0.1,0.1-0.2l0,0h-0.3c-0.1,0-0.1,0-0.2,0.1v-0.1c0,0,0-0.1,0-0.1
		c0-0.1,0.1-0.2,0.2-0.2h0.9C23.4,11,23.5,11,23.6,10.9z M24.3,11.5c0,0.6-0.3,1.2-0.9,1.3c0,0.4-0.2,0.6-0.5,0.7c0,0.3,0,0.6,0,0.9
		v0c0.1,0.2,0.1,0.4,0.1,0.5c0,0.3-0.3,0.6-0.6,0.5c-0.1,0-0.2,0-0.3,0c-0.4,0-0.5,0.1-0.8-0.1C21,15.2,21,15,21,14.9
		c0-0.2,0-0.4,0.1-0.6c-0.1-0.3-0.1-0.6,0-0.9c-0.3-0.1-0.5-0.3-0.5-0.7c-0.6-0.1-1-0.7-0.9-1.3c0-0.2,0.1-0.4,0.3-0.5v0.5
		c0,0.5,0.3,0.9,0.8,0.9h0.1c-0.1,0.9,1.1,1,1.1,0.2c-0.2-0.1-0.3-0.2-0.3-0.4h0.8c0,0.2-0.1,0.3-0.3,0.4c-0.1,0.7,1.1,0.6,1.1-0.2
		h0.1c0.5,0,0.8-0.4,0.8-0.9V11C24.2,11.2,24.3,11.3,24.3,11.5z M24.5,13.6c0,0.1,0,0.1-0.1,0.2c0,0.1,0,0.1,0,0.2
		c0-0.1,0-0.1-0.1-0.2c0-0.1,0-0.1-0.1-0.2c0,0,0-0.1-0.1-0.1L24,13.3c-0.1-0.1-0.1-0.1-0.1-0.2c0-0.1,0-0.2,0.1-0.3
		c0-0.1,0.1-0.1,0.1-0.2c0,0.1,0,0.1,0,0.1c0,0.1,0,0.1,0.1,0.2l0.3,0.4C24.5,13.4,24.5,13.5,24.5,13.6z M37.7,17.1h-1
		c-0.4,0-0.5-0.1-0.8-0.4c-0.1-0.1-0.1-0.2-0.2-0.3c0.2,0.2,0.5,0.3,0.7,0.3c0.2,0,0.5,0,0.7,0c0.2,0,0.3,0.1,0.4,0.2
		C37.7,17,37.7,17,37.7,17.1z M22.7,14.9c0.1-0.3-0.5-0.3-0.7-0.3c-0.1,0-0.2,0-0.3,0c-0.1,0-0.4,0.1-0.4,0.3
		c0.1,0.2,0.2,0.2,0.4,0.2c0.1,0,0.2,0,0.3,0s0.2,0,0.3,0C22.4,15.1,22.6,15.1,22.7,14.9z M22.5,14.4c0-0.3,0.1-0.5,0.1-0.8v-0.1
		l-0.3,0.3c0,0,0-0.1-0.1-0.1c0-0.1-0.1-0.2-0.1-0.2c-0.1,0-0.1,0-0.2,0c-0.1,0-0.1,0-0.2,0h0c-0.1,0-0.2,0.3-0.2,0.3l-0.3-0.3
		c0,0.3,0,0.6,0.1,0.9c0.2,0,0.4,0,0.6,0C22.2,14.3,22.3,14.3,22.5,14.4z M34.9,10.6c0,0,0-0.1,0-0.1s0-0.1,0-0.1
		c-0.7,0.2-1.1,0.3-1.8,0.5c-0.8,0.2-1.2,0.4-1.9,0.6c-0.7,0.2-1.1,0.4-1.9,0.5c-0.4,0.1-0.6,0.1-1,0.1c-0.4,0-0.6,0-0.8-0.1
		c-0.2-0.1-0.4-0.3-0.5-0.5c0-0.1,0-0.2,0-0.3c0.1-0.1,0.1-0.1,0.3-0.1c0.1,0,0.3,0.1,0.3,0.2c0,0.1,0,0.2-0.1,0.3
		c0.1,0,0.2,0,0.3,0c0.2,0,0.3,0,0.5-0.1c0.1-0.1,0.2-0.2,0.2-0.4c0-0.2-0.1-0.3-0.2-0.4c-0.1-0.1-0.2-0.1-0.3-0.1
		c0.2-0.1,0.3-0.1,0.5,0c0.1,0,0.1,0.1,0.2,0.2c0.1,0.1,0.1,0.3,0.1,0.5c0.4,0,0.6,0,0.9-0.1c0.4-0.1,0.6-0.3,0.9-0.6
		c0.3-0.3,0.5-0.5,0.7-0.9c-0.3,0.2-0.5,0.2-0.8,0.3c-0.9,0.2-1.5-0.2-2.2-0.2c-0.4,0-0.9,0.1-1.3,0.2c-0.5,0.2-0.8,0.4-1,0.8
		c-0.2,0.4-0.2,0.7,0,1.2c0.1,0.4,0.4,0.6,0.7,0.8c0.5,0.3,0.8,0.3,1.3,0.3c0.8,0.1,1.2-0.1,1.9-0.2c0.7-0.1,1-0.3,1.7-0.5
		c0.7-0.2,1.1-0.3,1.9-0.5c0.3-0.3,0.4-0.4,0.7-0.7C34.5,10.8,34.6,10.7,34.9,10.6z M25.3,46.6c-0.1,0.1-0.2,0.2-0.2,0.4
		c0,0.1,0,0.2,0.1,0.3c0.1-0.1,0.2-0.2,0.3-0.3c0.1-0.1,0.2-0.1,0.4-0.2c0.1-0.2,0.1-0.3,0.2-0.4c0.1-0.1,0.1-0.2,0.2-0.2
		c0.2-0.1,0.3-0.1,0.5-0.1c-0.2,0.1-0.2,0.1-0.4,0.2c-0.2,0.2-0.3,0.3-0.3,0.5c-0.1,0-0.1,0.1-0.2,0.1c-0.1,0.1-0.1,0.2-0.2,0.3
		c0,0.2,0,0.3,0.1,0.5c0.1-0.1,0.2-0.2,0.4-0.3c0.1-0.1,0.2-0.1,0.4-0.2c0-0.2,0.1-0.3,0.2-0.5c0.2-0.2,0.4-0.3,0.6-0.4
		c-0.2,0.1-0.3,0.1-0.4,0.3c-0.2,0.2-0.2,0.4-0.3,0.7c0,0.2,0,0.3,0.1,0.5c0.1-0.1,0.2-0.2,0.3-0.3c0.1-0.1,0.2-0.1,0.3-0.1
		c0.1,0,0.2,0,0.3,0c0.1,0,0.2,0,0.3,0c0.2,0,0.4,0,0.5-0.2c0.2-0.1,0.2-0.3,0.2-0.5c0-0.1,0-0.1,0-0.2c0-0.1,0-0.1-0.1-0.1
		c0.1,0,0.2,0,0.2,0.1c0.1,0.1,0.1,0.2,0.1,0.3c0,0.1,0,0.2-0.1,0.3c0.2,0,0.4,0,0.6-0.1c0.2-0.1,0.3-0.2,0.4-0.4
		c0.1-0.1,0.1-0.2,0.1-0.3c0.2-0.1,0.3-0.2,0.4-0.3c0.1-0.1,0.2-0.2,0.3-0.3l0.1,0.4c0,0.1,0,0.2,0,0.2c0,0.1,0,0.1,0,0.2l0.4-0.4
		c0.1-0.1,0.1-0.1,0.1-0.2c0-0.1,0-0.1,0-0.2l-0.2-0.7c0-0.1,0-0.2,0-0.3c0-0.1,0-0.1,0.1-0.2l0.2-0.2c0,0.1,0,0.1,0,0.1
		c0,0.1,0,0.1,0,0.2l0.2,0.6c0,0.1,0,0.1,0,0.2c0,0.1,0,0.1,0,0.2l0.4-0.4c0.1-0.1,0.1-0.1,0.1-0.2c0-0.1,0-0.1,0-0.2l-0.2-0.7
		c0-0.1,0-0.2,0-0.3c0-0.1,0-0.1,0.1-0.2l0.2-0.2c0,0.1,0,0.1,0,0.1c0,0.1,0,0.1,0,0.2l0.2,0.6c0,0.1,0,0.1,0,0.2c0,0.1,0,0.1,0,0.2
		l0.3-0.4c0.1-0.1,0.1-0.1,0.1-0.2c0-0.1,0-0.1,0-0.2l0-0.2c0,0,0-0.2,0-0.3c0-0.2,0.1-0.2,0.2-0.3c0.2-0.2,0.3-0.3,0.5-0.5
		c0.3-0.2,0.4-0.4,0.7-0.6c0-0.2,0-0.3-0.1-0.5c-0.1-0.1-0.1-0.2-0.2-0.3c-0.1-0.1-0.1-0.1-0.2-0.1c-0.1,0-0.1,0-0.2-0.1
		c-0.3-0.1-0.4-0.1-0.7,0c-0.1,0-0.2,0-0.3,0.1c0,0-0.2,0.1-0.2,0.1c0,0.1,0,0.2,0,0.3c0,0.1-0.1,0.2-0.1,0.3
		c-0.1,0.1-0.2,0.1-0.4,0.2c-0.3,0.1-0.4,0-0.7,0.1c-0.3,0.1-0.5,0-0.7,0.2c-0.5,0.2-0.7,0.5-1,1c-0.2,0.4-0.3,0.7-0.5,1
		c-0.1,0.1-0.1,0.1-0.2,0.2c0.2,0,0.3,0,0.4-0.1c0.3,0,0.4,0,0.7,0c-0.1,0-0.2,0.1-0.3,0.1c-0.1,0-0.1,0.1-0.2,0.1
		c-0.1,0.3-0.2,0.4-0.4,0.6c-0.2,0.2-0.4,0.2-0.7,0.2c-0.2,0-0.4-0.1-0.6-0.1c-0.3-0.1-0.4-0.2-0.7-0.2c-0.2,0-0.3,0-0.5,0.1
		c-0.2,0.1-0.3,0.2-0.5,0.4c-0.1,0.2-0.2,0.4-0.2,0.6C25.5,46.4,25.4,46.4,25.3,46.6z M31.1,43.6c0.1-0.3,0.3-0.4,0.5-0.6
		c0.2-0.1,0.3-0.2,0.6-0.2c0.2-0.1,0.3,0,0.4-0.1c0.2-0.1,0.3-0.1,0.5-0.2c-0.1,0.2-0.2,0.3-0.4,0.4c-0.3,0.2-0.5,0.2-0.8,0.4
		c-0.4,0.3-0.6,0.6-0.8,1C31,44.1,31,43.9,31.1,43.6z"/>
	<path class="st0" d="M65.5,37.1h-3.2v3.3H66v1h-4.9v-9.3H66v1h-3.7v3h3.2V37.1z"/>
	<path class="st0" d="M69.7,38.5h-1.3v2.9h-1.1v-7.5h2.3c0.8,0,1.4,0.2,1.8,0.6c0.4,0.4,0.6,1,0.6,1.7c0,1-0.4,1.7-1.2,2l1.5,3.1
		v0.1h-1.2L69.7,38.5z M68.4,37.5h1.2c0.4,0,0.7-0.1,0.9-0.4s0.3-0.5,0.3-0.9c0-0.9-0.4-1.3-1.3-1.3h-1.1L68.4,37.5L68.4,37.5z"/>
	<path class="st0" d="M77,39.6h-2.6l-0.6,1.8h-1.1l2.5-7.5h1l2.5,7.5h-1.1L77,39.6z M74.7,38.6h2l-1-3.1L74.7,38.6z"/>
	<path class="st0" d="M81,41.4h-1.1v-7.5H81V41.4z"/>
	<path class="st0" d="M86.1,39.5c0-0.4-0.1-0.6-0.3-0.8c-0.2-0.2-0.6-0.4-1.1-0.5c-0.5-0.1-0.9-0.3-1.2-0.5c-0.7-0.4-1-1-1-1.8
		c0-0.6,0.2-1.1,0.6-1.5c0.4-0.4,1-0.6,1.7-0.6c0.7,0,1.3,0.2,1.7,0.6c0.4,0.4,0.7,1,0.7,1.6h-1.1c0-0.4-0.1-0.8-0.3-1
		c-0.2-0.2-0.5-0.3-0.9-0.3c-0.4,0-0.7,0.1-0.9,0.3c-0.2,0.2-0.3,0.5-0.3,0.8c0,0.3,0.1,0.5,0.4,0.7c0.2,0.2,0.6,0.4,1.1,0.5
		c0.5,0.2,0.9,0.3,1.2,0.6c0.3,0.2,0.5,0.5,0.7,0.8c0.1,0.3,0.2,0.6,0.2,1c0,0.6-0.2,1.1-0.6,1.5c-0.4,0.4-1,0.5-1.7,0.5
		c-0.5,0-0.9-0.1-1.3-0.3s-0.7-0.5-0.9-0.8c-0.2-0.4-0.3-0.8-0.3-1.2h1.1c0,0.4,0.1,0.8,0.4,1c0.2,0.2,0.6,0.4,1.1,0.4
		c0.4,0,0.7-0.1,0.9-0.3C86,40.1,86.1,39.8,86.1,39.5z"/>
	<path class="st0" d="M89.7,41.4h-1.1v-7.5h1.1V41.4z"/>
	<path class="st0" d="M93.2,38.1L92.5,39v2.4h-1.1v-7.5h1.1v3.5l2.6-3.5h1.3l-2.5,3.3l2.6,4.1h-1.3L93.2,38.1z"/>
	<path class="st0" d="M102.2,33.9v5c0,0.8-0.2,1.4-0.7,1.8c-0.4,0.5-1,0.7-1.8,0.7c-0.8,0-1.3-0.2-1.8-0.7c-0.4-0.4-0.7-1.1-0.7-1.9
		v-5h1.1v5c0,0.5,0.1,0.9,0.3,1.2c0.2,0.3,0.6,0.4,1,0.4c0.4,0,0.7-0.1,1-0.4c0.2-0.3,0.4-0.7,0.4-1.2v-5H102.2z"/>
	<path class="st0" d="M104.9,40.4h3v1h-4.1v-7.5h1.1V40.4z"/>
	<path class="st0" d="M112.9,38h-2.7v2.4h3.2v1h-4.3v-7.5h4.3v1h-3.1v2.1h2.7V38z"/>
	<path class="st0" d="M65.5,23.3h-3.5V27H66v0.7h-4.8v-9.3H66v0.7h-4.1v3.5h3.5V23.3z"/>
	<path class="st0" d="M71.1,24.2h-3V27h3.5v0.7h-4.2v-7.5h4.1v0.7h-3.5v2.6h3L71.1,24.2L71.1,24.2z"/>
	<path class="st0" d="M76.7,25.9c0-0.4-0.1-0.7-0.4-0.9c-0.2-0.2-0.7-0.4-1.3-0.6c-0.6-0.2-1.1-0.4-1.4-0.6
		c-0.3-0.2-0.5-0.4-0.7-0.7c-0.1-0.3-0.2-0.6-0.2-0.9c0-0.6,0.2-1,0.6-1.4c0.4-0.4,1-0.5,1.6-0.5c0.7,0,1.2,0.2,1.7,0.6
		c0.4,0.4,0.6,1,0.6,1.6h-0.7c0-0.5-0.1-0.9-0.4-1.1c-0.3-0.3-0.7-0.4-1.2-0.4c-0.5,0-0.9,0.1-1.1,0.4c-0.3,0.2-0.4,0.5-0.4,0.9
		c0,0.4,0.1,0.6,0.4,0.9c0.3,0.2,0.7,0.4,1.3,0.6c0.6,0.2,1,0.4,1.3,0.6c0.3,0.2,0.5,0.4,0.7,0.7c0.1,0.3,0.2,0.6,0.2,1
		c0,0.6-0.2,1.1-0.6,1.4c-0.4,0.4-1,0.5-1.7,0.5c-0.7,0-1.3-0.2-1.8-0.6c-0.5-0.4-0.7-1-0.7-1.7h0.7c0,0.5,0.2,0.9,0.5,1.2
		c0.3,0.3,0.8,0.4,1.3,0.4c0.5,0,0.9-0.1,1.2-0.4C76.5,26.6,76.7,26.3,76.7,25.9z"/>
	<path class="st0" d="M83.3,20.9h-2.2v6.8h-0.7v-6.8h-2.2v-0.7h5.1V20.9z"/>
	<path class="st0" d="M85.4,27.7h-0.7v-7.5h0.7V27.7z"/>
	<path class="st0" d="M87.4,27.3c0-0.1,0-0.3,0.1-0.4c0.1-0.1,0.2-0.2,0.4-0.2s0.3,0.1,0.4,0.2c0.1,0.1,0.1,0.2,0.1,0.4
		s0,0.3-0.1,0.4c-0.1,0.1-0.2,0.1-0.4,0.1s-0.3,0-0.4-0.1C87.4,27.5,87.4,27.4,87.4,27.3z"/>
	<path class="st0" d="M94.2,24.2h-3V27h3.5v0.7h-4.2v-7.5h4.1v0.7h-3.4v2.6h3V24.2z"/>
	<path class="st0" d="M99.7,24.2h-3V27h3.5v0.7H96v-7.5h4.1v0.7h-3.5v2.6h3L99.7,24.2L99.7,24.2z"/>
</g>
</svg>
